<svg width="50" height="50" viewBox="0 0 50 50" fill="none" xmlns="http://www.w3.org/2000/svg">
<path d="M36.0156 34.375C35.7229 34.084 35.3269 33.9206 34.9141 33.9206C34.5013 33.9206 34.1053 34.084 33.8125 34.375L26.5625 41.5V4.6875C26.5625 4.2731 26.3979 3.87567 26.1049 3.58265C25.8118 3.28962 25.4144 3.125 25 3.125C24.5856 3.125 24.1882 3.28962 23.8952 3.58265C23.6021 3.87567 23.4375 4.2731 23.4375 4.6875V41.4531L16.3594 34.375C16.2141 34.2285 16.0413 34.1123 15.8509 34.033C15.6605 33.9537 15.4563 33.9128 15.25 33.9128C15.0437 33.9128 14.8395 33.9537 14.6491 34.033C14.4587 34.1123 14.2859 34.2285 14.1406 34.375C13.8496 34.6678 13.6863 35.0638 13.6863 35.4766C13.6863 35.8894 13.8496 36.2854 14.1406 36.5781L24.0938 46.5312C24.3573 46.7936 24.7141 46.941 25.086 46.941C25.4578 46.941 25.8146 46.7936 26.0781 46.5312L36.0156 36.5781C36.3067 36.2854 36.47 35.8894 36.47 35.4766C36.47 35.0638 36.3067 34.6678 36.0156 34.375Z" fill="#F1FAEE"/>
</svg>
