<svg width="26" height="26" viewBox="0 0 26 26" fill="none" xmlns="http://www.w3.org/2000/svg">
<path d="M18.7956 25.129C17.8179 25.1217 16.8445 24.999 15.8956 24.7634C12.6187 23.9727 9.24437 21.9671 6.39562 19.1159C3.54687 16.2646 1.53874 12.8896 0.74812 9.61586C-0.0843798 6.17211 0.50937 3.22585 2.41812 1.3171L2.96312 0.772104C3.45759 0.278619 4.12765 0.00146484 4.82624 0.00146484C5.52484 0.00146484 6.19489 0.278619 6.68937 0.772104L9.82124 3.90335C10.315 4.39767 10.5924 5.06779 10.5924 5.76648C10.5924 6.46517 10.315 7.13529 9.82124 7.62961L7.97124 9.47898C8.85812 11.0352 10.0644 12.5927 11.49 14.0184C12.9156 15.444 14.4744 16.6509 16.03 17.5377L17.8794 15.6877C18.124 15.443 18.4145 15.2489 18.7341 15.1164C19.0538 14.984 19.3965 14.9158 19.7425 14.9158C20.0885 14.9158 20.4312 14.984 20.7508 15.1164C21.0705 15.2489 21.361 15.443 21.6056 15.6877L24.7369 18.819C25.2308 19.3131 25.5082 19.9832 25.5082 20.6818C25.5082 21.3804 25.2308 22.0505 24.7369 22.5446L24.1912 23.0896C22.8456 24.4377 20.9831 25.129 18.7956 25.129ZM4.82624 1.87523C4.72645 1.87473 4.62757 1.89416 4.53538 1.93236C4.44319 1.97057 4.35955 2.02679 4.28937 2.09773L3.74374 2.64273C2.31437 4.0721 1.89687 6.39273 2.56812 9.17336C3.27874 12.119 5.10812 15.1796 7.71874 17.7896C10.3294 20.3996 13.3894 22.2271 16.3356 22.9402C19.1169 23.6115 21.4362 23.194 22.8656 21.7646L23.4106 21.2196C23.553 21.0771 23.633 20.8839 23.633 20.6824C23.633 20.481 23.553 20.2877 23.4106 20.1452L20.28 17.014C20.1375 16.8716 19.9443 16.7916 19.7428 16.7916C19.5413 16.7916 19.3481 16.8716 19.2056 17.014L16.8612 19.3584C16.7206 19.4991 16.5388 19.5914 16.3421 19.622C16.1455 19.6526 15.9442 19.6198 15.7675 19.5284C13.8456 18.5346 11.9081 17.0877 10.1644 15.344C8.42062 13.6002 6.97687 11.664 5.98062 9.74211C5.88913 9.56542 5.85623 9.3642 5.88668 9.16757C5.91713 8.97094 6.00935 8.7891 6.14999 8.64836L8.49499 6.30398C8.63739 6.16147 8.71738 5.96825 8.71738 5.76679C8.71738 5.56533 8.63739 5.37212 8.49499 5.22961L5.36374 2.09773C5.29334 2.02691 5.20957 1.97078 5.1173 1.93258C5.02503 1.89439 4.9261 1.87489 4.82624 1.87523V1.87523Z" fill="#1ABCFE"/>
<path d="M19.7969 13.8585C19.5482 13.8585 19.3098 13.7598 19.134 13.5839C18.9581 13.4081 18.8594 13.1697 18.8594 12.921C18.8576 11.2764 18.2034 9.69957 17.0406 8.53655C15.8777 7.37353 14.3009 6.71927 12.6562 6.71729C12.4076 6.71729 12.1692 6.61851 11.9933 6.4427C11.8175 6.26688 11.7188 6.02843 11.7188 5.77979C11.7188 5.53114 11.8175 5.29269 11.9933 5.11687C12.1692 4.94106 12.4076 4.84229 12.6562 4.84229C17.1106 4.84229 20.7344 8.46728 20.7344 12.921C20.7344 13.1697 20.6356 13.4081 20.4598 13.5839C20.284 13.7598 20.0455 13.8585 19.7969 13.8585Z" fill="#1ABCFE"/>
<path d="M23.7594 13.8581C23.5107 13.8581 23.2723 13.7594 23.0965 13.5835C22.9206 13.4077 22.8219 13.1693 22.8219 12.9206C22.8219 7.31502 18.2594 2.75439 12.6562 2.75439C12.4076 2.75439 12.1692 2.65562 11.9933 2.47981C11.8175 2.30399 11.7188 2.06553 11.7188 1.81689C11.7188 1.56825 11.8175 1.3298 11.9933 1.15398C12.1692 0.978167 12.4076 0.879395 12.6562 0.879395C19.2956 0.879395 24.6969 6.28127 24.6969 12.9206C24.6969 13.1693 24.5981 13.4077 24.4223 13.5835C24.2465 13.7594 24.008 13.8581 23.7594 13.8581Z" fill="#1ABCFE"/>
</svg>
