<svg width="40" height="40" viewBox="0 0 40 40" fill="none" xmlns="http://www.w3.org/2000/svg">
<path d="M37.6878 29.5943C37.0673 28.5817 36.1043 27.4023 34.973 26.2725C34.1542 25.4537 31.3432 22.784 29.5358 22.784C28.9559 22.784 28.5878 23.0318 28.3819 23.2377L25.9751 25.643C25.9345 25.6836 25.8053 25.7302 25.5724 25.7302C24.2368 25.7302 21.4048 24.2518 18.5757 21.4243C14.8032 17.6502 13.8958 14.4862 14.357 14.0249L16.7608 11.6196C16.9682 11.4123 17.2161 11.0442 17.2161 10.4657C17.2176 8.65685 14.5463 5.84585 13.7275 5.02704C12.9102 4.20823 10.1007 1.53846 8.29029 1.53846C7.71186 1.53846 7.34377 1.78485 7.13644 1.99219L2.32424 6.80439C0.902968 8.22416 1.4213 11.0021 3.86571 15.0601C5.9871 18.5817 9.34497 22.7103 13.3173 26.6827C20.3636 33.729 27.4985 38.463 31.0712 38.4615C31.9607 38.4615 32.6743 38.1971 33.1956 37.6758L38.0078 32.8636C39.049 31.8224 38.0244 30.1457 37.6878 29.5943ZM31.564 36.0442C31.5099 36.0968 31.3537 36.1538 31.0712 36.1538C28.6388 36.1538 22.162 32.2626 14.9489 25.0511C11.1043 21.2064 7.87112 17.2356 5.84287 13.8687C3.55772 10.0766 3.77256 8.61929 3.95585 8.436L8.4856 3.90625C9.07605 4.13461 10.4447 5.00601 12.0959 6.65865C13.747 8.3113 14.6199 9.67848 14.8483 10.2689L12.7254 12.3933C10.5123 14.6064 13.3609 19.4712 16.9441 23.0559C20.0181 26.1298 23.3248 28.0379 25.5724 28.0379C26.6226 28.0379 27.2581 27.6232 27.6067 27.2746L29.7311 25.1517C30.3215 25.3801 31.6887 26.253 33.3414 27.9041C34.9925 29.5553 35.8654 30.924 36.0938 31.5144L31.564 36.0442Z" fill="#F1FAEE"/>
</svg>
