<svg width="40" height="40" viewBox="0 0 40 40" fill="none" xmlns="http://www.w3.org/2000/svg">
<path d="M35.2433 14.2933L22.66 4.06833C21.1183 2.81666 18.8817 2.81666 17.34 4.06833L4.75834 14.2917C4.31667 14.65 4.065 15.18 4.065 15.7467V34.985C4.065 36.0183 4.90667 36.8683 5.94 36.8683H14.3767C15.41 36.8683 16.2517 36.0183 16.2517 34.985V22.8083H23.75V34.985C23.75 36.0183 24.5917 36.8683 25.625 36.8683H34.0617C35.095 36.8683 35.9367 36.0183 35.9367 34.985V15.7467C35.935 15.18 35.6833 14.65 35.2433 14.2933ZM34.06 34.995H25.6233V22.8C25.6233 21.7667 24.7817 20.935 23.7483 20.935H16.25C15.2167 20.935 14.375 21.7667 14.375 22.8V34.995H5.94V15.7467L18.5233 5.52333C19.3783 4.82666 20.6233 4.82833 21.4783 5.52333L34.0617 15.7467V34.995H34.06Z" fill="#F1FAEE"/>
</svg>
