<svg width="28" height="21" viewBox="0 0 28 21" fill="none" xmlns="http://www.w3.org/2000/svg">
<path d="M27 0.999775H1H0.92C0.85032 0.990309 0.77968 0.990309 0.71 0.999775L0.54 1.06978C0.485598 1.09598 0.435112 1.12964 0.39 1.16978C0.333109 1.20846 0.282515 1.25568 0.24 1.30978L0.18 1.36978C0.176235 1.39966 0.176235 1.42989 0.18 1.45978C0.147336 1.52041 0.120547 1.58404 0.0999999 1.64978C0.0580371 1.72939 0.0245213 1.81318 0 1.89978C0 1.89978 0 1.99978 0 1.99978V19.9998C0 20.265 0.105357 20.5193 0.292893 20.7069C0.48043 20.8944 0.734784 20.9998 1 20.9998H27C27.2652 20.9998 27.5196 20.8944 27.7071 20.7069C27.8946 20.5193 28 20.265 28 19.9998V1.99978C28 1.73456 27.8946 1.48021 27.7071 1.29267C27.5196 1.10513 27.2652 0.999775 27 0.999775ZM14 9.80978L4.2 2.99978H25.09L14 9.80978ZM2 18.9998V3.90978L13.43 11.8198C13.4879 11.8537 13.5481 11.8838 13.61 11.9098H13.69C13.7883 11.955 13.8928 11.9853 14 11.9998C14.1422 11.996 14.282 11.9619 14.41 11.8998H14.48L26 4.78978V18.9998H2Z" fill="#0ACF83"/>
</svg>
