<svg width="40" height="40" viewBox="0 0 40 40" fill="none" xmlns="http://www.w3.org/2000/svg">
<path d="M35 10H26.25V7.5C26.25 6.83696 25.9866 6.20107 25.5178 5.73223C25.0489 5.26339 24.413 5 23.75 5H16.25C15.587 5 14.9511 5.26339 14.4822 5.73223C14.0134 6.20107 13.75 6.83696 13.75 7.5V10H5C4.33696 10 3.70107 10.2634 3.23223 10.7322C2.76339 11.2011 2.5 11.837 2.5 12.5V32.5C2.5 33.163 2.76339 33.7989 3.23223 34.2678C3.70107 34.7366 4.33696 35 5 35H35C35.663 35 36.2989 34.7366 36.7678 34.2678C37.2366 33.7989 37.5 33.163 37.5 32.5V12.5C37.5 11.837 37.2366 11.2011 36.7678 10.7322C36.2989 10.2634 35.663 10 35 10ZM16.25 7.5H23.75V10H16.25V7.5ZM35 12.5V23.75H5V12.5H35ZM5 32.5V26.25H35V32.5H5Z" fill="#F1FAEE"/>
<path d="M18.75 22.5H21.25C21.5815 22.5 21.8995 22.3683 22.1339 22.1339C22.3683 21.8995 22.5 21.5815 22.5 21.25C22.5 20.9185 22.3683 20.6005 22.1339 20.3661C21.8995 20.1317 21.5815 20 21.25 20H18.75C18.4185 20 18.1005 20.1317 17.8661 20.3661C17.6317 20.6005 17.5 20.9185 17.5 21.25C17.5 21.5815 17.6317 21.8995 17.8661 22.1339C18.1005 22.3683 18.4185 22.5 18.75 22.5Z" fill="#F1FAEE"/>
</svg>
