<svg width="0" height="0" class="hidden">
  <symbol id="about" xmlns="http://www.w3.org/2000/svg" viewBox="0 0 24 24">
    <defs></defs>
    <title></title>
    <g id="_Group_">
      <circle cx="12" cy="7.65" id="_Path_" r="4.17"></circle>
      <path d="M2.61,20.83h0a9,9,0,0,1,9-9h.75a9,9,0,0,1,9,9h0" id="_Path_2"></path>
    </g>
  </symbol>
  <symbol xmlns="http://www.w3.org/2000/svg" viewBox="0 0 32 32" id="arrow">
    <title></title>
    <g id="Layer_2">
      <path d="M23.05,22a1,1,0,0,0-1.41,0L17,26.56V3a1,1,0,1,0-2,0V26.53L10.47,22a1,1,0,0,0-1.42,0,1,1,0,0,0,0,1.41l6.37,6.37a.9.9,0,0,0,1.27,0l6.36-6.37A1,1,0,0,0,23.05,22Z"></path>
    </g>
  </symbol>
  <symbol xmlns="http://www.w3.org/2000/svg" viewBox="0 0 512 512" id="call">
    <title></title>
    <g id="_1">
      <path d="M348.73,450.06a198.63,198.63,0,0,1-46.4-5.85c-52.43-12.65-106.42-44.74-152-90.36s-77.71-99.62-90.36-152C46.65,146.75,56.15,99.61,86.69,69.07l8.72-8.72a42.2,42.2,0,0,1,59.62,0l50.11,50.1a42.18,42.18,0,0,1,0,59.62l-29.6,29.59c14.19,24.9,33.49,49.82,56.3,72.63s47.75,42.12,72.64,56.31L334.07,299a42.15,42.15,0,0,1,59.62,0l50.1,50.1a42.16,42.16,0,0,1,0,59.61l-8.73,8.72C413.53,439,383.73,450.06,348.73,450.06ZM125.22,78a12,12,0,0,0-8.59,3.56l-8.73,8.72c-22.87,22.87-29.55,60-18.81,104.49,11.37,47.13,40.64,96.1,82.41,137.86s90.73,71,137.87,82.41c44.5,10.74,81.61,4.06,104.48-18.81l8.72-8.72a12.16,12.16,0,0,0,0-17.19l-50.09-50.1a12.16,12.16,0,0,0-17.19,0l-37.51,37.51a15,15,0,0,1-17.5,2.72c-30.75-15.9-61.75-39.05-89.65-66.95s-51-58.88-66.94-89.63a15,15,0,0,1,2.71-17.5l37.52-37.51a12.16,12.16,0,0,0,0-17.19l-50.1-50.11A12.07,12.07,0,0,0,125.22,78Z"></path>
      <path d="M364.75,269.73a15,15,0,0,1-15-15,99.37,99.37,0,0,0-99.25-99.26,15,15,0,0,1,0-30c71.27,0,129.25,58,129.25,129.26A15,15,0,0,1,364.75,269.73Z"></path>
      <path d="M428.15,269.73a15,15,0,0,1-15-15c0-89.69-73-162.66-162.65-162.66a15,15,0,0,1,0-30c106.23,0,192.65,86.43,192.65,192.66A15,15,0,0,1,428.15,269.73Z"></path>
    </g>
  </symbol>
  <symbol enable-background="new 0 0 26 26" id="contact" version="1.1" xml:space="preserve" xmlns="http://www.w3.org/2000/svg" xmlns:xlink="http://www.w3.org/1999/xlink" viewBox="0 0 26 26">
    <path d="M24.4970703,19.2363281c-0.4033203-0.6582031-1.0292969-1.4248047-1.7646484-2.1591797  c-0.5322266-0.5322266-2.359375-2.2675781-3.5341797-2.2675781c-0.3769531,0-0.6162109,0.1611328-0.75,0.2949219  l-1.5644531,1.5634766c-0.0263672,0.0263672-0.1103516,0.0566406-0.2617188,0.0566406  c-0.8681641,0-2.7089844-0.9609375-4.5478516-2.7988281c-2.4521484-2.453125-3.0419922-4.5097656-2.7421875-4.8095703  l1.5625-1.5634766c0.1347656-0.1347656,0.2958984-0.3740234,0.2958984-0.75  c0.0009766-1.1757813-1.7353516-3.0029297-2.2675781-3.5351563C8.3916016,2.7353516,6.5654297,1,5.3886719,1  c-0.3759766,0-0.6152344,0.1601563-0.75,0.2949219L1.5107422,4.4228516  C0.5869141,5.3457031,0.9238281,7.1513672,2.5126953,9.7890625C3.8916016,12.078125,6.0742188,14.7617188,8.65625,17.34375  C13.2363281,21.9238281,17.8740234,25.0009766,20.1962891,25c0.578125,0,1.0419922-0.171875,1.3808594-0.5107422  l3.1279297-3.1279297C25.3818359,20.6845703,24.7158203,19.5947266,24.4970703,19.2363281z M20.5166016,23.4287109  C20.4814453,23.4628906,20.3798828,23.5,20.1962891,23.5c-1.5810547,0-5.7910156-2.5292969-10.4794922-7.2167969  c-2.4990234-2.4990234-4.6005859-5.0800781-5.9189453-7.2685547C2.3125,6.5498047,2.4521484,5.6025391,2.5712891,5.4833984  L5.515625,2.5390625C5.8994141,2.6875,6.7890625,3.2539063,7.8623047,4.328125s1.640625,1.9628906,1.7890625,2.3466797  L8.2714844,8.0556641c-1.4384766,1.4384766,0.4130859,4.6005859,2.7421875,6.9306641  c1.9980469,1.9980469,4.1474609,3.2382813,5.6083984,3.2382813c0.6826172,0,1.0957031-0.2695313,1.3222656-0.4960938  l1.3808594-1.3798828c0.3837891,0.1484375,1.2724609,0.7158203,2.3466797,1.7890625  c1.0732422,1.0732422,1.640625,1.9628906,1.7890625,2.3466797L20.5166016,23.4287109z" fill="#1D1D1B"></path>
  </symbol>
  <symbol xmlns="http://www.w3.org/2000/svg" viewBox="0 0 24 24" id="email">
    <path d="M0 3v18h24v-18h-24zm21.518 2l-9.518 7.713-9.518-7.713h19.036zm-19.518 14v-11.817l10 8.104 10-8.104v11.817h-20z"></path>
  </symbol>
  <symbol  xmlns="http://www.w3.org/2000/svg" viewBox="0 0 1024 1024" id="github">
    <path fill-rule="evenodd" clip-rule="evenodd" d="M8 0C3.58 0 0 3.58 0 8C0 11.54 2.29 14.53 5.47 15.59C5.87 15.66 6.02 15.42 6.02 15.21C6.02 15.02 6.01 14.39 6.01 13.72C4 14.09 3.48 13.23 3.32 12.78C3.23 12.55 2.84 11.84 2.5 11.65C2.22 11.5 1.82 11.13 2.49 11.12C3.12 11.11 3.57 11.7 3.72 11.94C4.44 13.15 5.59 12.81 6.05 12.6C6.12 12.08 6.33 11.73 6.56 11.53C4.78 11.33 2.92 10.64 2.92 7.58C2.92 6.71 3.23 5.99 3.74 5.43C3.66 5.23 3.38 4.41 3.82 3.31C3.82 3.31 4.49 3.1 6.02 4.13C6.66 3.95 7.34 3.86 8.02 3.86C8.7 3.86 9.38 3.95 10.02 4.13C11.55 3.09 12.22 3.31 12.22 3.31C12.66 4.41 12.38 5.23 12.3 5.43C12.81 5.99 13.12 6.7 13.12 7.58C13.12 10.65 11.25 11.33 9.47 11.53C9.76 11.78 10.01 12.26 10.01 13.01C10.01 14.08 10 14.94 10 15.21C10 15.42 10.15 15.67 10.55 15.59C13.71 14.53 16 11.53 16 8C16 3.58 12.42 0 8 0Z" transform="scale(64)" ></path>
  </symbol>
  <symbol id="home" version="1.1" xml:space="preserve" xmlns="http://www.w3.org/2000/svg" xmlns:xlink="http://www.w3.org/1999/xlink" viewBox="0 0 24 24">
    <path d="M21.146,8.576l-7.55-6.135c-0.925-0.751-2.267-0.751-3.192,0c0,0,0,0,0,0L2.855,8.575C2.59,8.79,2.439,9.108,2.439,9.448  v11.543c0,0.62,0.505,1.13,1.125,1.13h5.062c0.62,0,1.125-0.51,1.125-1.13v-7.306h4.499v7.306c0,0.62,0.505,1.13,1.125,1.13h5.062  c0.62,0,1.125-0.51,1.125-1.13V9.448C21.561,9.108,21.41,8.79,21.146,8.576z M20.436,20.997h-5.062V13.68  c0-0.62-0.505-1.119-1.125-1.119H9.75c-0.62,0-1.125,0.499-1.125,1.119v7.317H3.564V9.448l7.55-6.134  c0.513-0.418,1.26-0.417,1.773,0l7.55,6.134V20.997z"></path>
  </symbol>
  <symbol id="instagram" xmlns="http://www.w3.org/2000/svg" viewBox="0 0 128 128">
    <defs></defs>
    <title></title>
    <path d="M83,23a22,22,0,0,1,22,22V83a22,22,0,0,1-22,22H45A22,22,0,0,1,23,83V45A22,22,0,0,1,45,23H83m0-8H45A30.09,30.09,0,0,0,15,45V83a30.09,30.09,0,0,0,30,30H83a30.09,30.09,0,0,0,30-30V45A30.09,30.09,0,0,0,83,15Z"></path>
    <path d="M90.14,32a5.73,5.73,0,1,0,5.73,5.73A5.73,5.73,0,0,0,90.14,32Z"></path>
    <path d="M64.27,46.47A17.68,17.68,0,1,1,46.6,64.14,17.7,17.7,0,0,1,64.27,46.47m0-8A25.68,25.68,0,1,0,90,64.14,25.68,25.68,0,0,0,64.27,38.47Z"></path>
  </symbol>
  <symbol xmlns="http://www.w3.org/2000/svg" viewBox="0 0 60 1" id="line">
    <g id="Layer_2">
      <g id="Layer_1-2">
        <rect width="60" height="1"></rect>
      </g>
    </g>
  </symbol>
  <symbol xmlns="http://www.w3.org/2000/svg" viewBox="0 0 24 24" id="linkedin">
    <path d="M4.98 3.5c0 1.381-1.11 2.5-2.48 2.5s-2.48-1.119-2.48-2.5c0-1.38 1.11-2.5 2.48-2.5s2.48 1.12 2.48 2.5zm.02 4.5h-5v16h5v-16zm7.982 0h-4.968v16h4.969v-8.399c0-4.67 6.029-5.052 6.029 0v8.399h4.988v-10.131c0-7.88-8.922-7.593-11.018-3.714v-2.155z"></path>
  </symbol>
  <symbol xmlns="http://www.w3.org/2000/svg" viewBox="0 0 50 33" id="logo">
    <g id="VY">
      <path d="M14.3485 25.5084L21.9434 0H29.3391L18.1127 32.2398H13.2413L14.3485 25.5084ZM7.35138 0L14.9242 25.5084L16.0756 32.2398H11.1599L0 0H7.35138Z"></path>
      <path d="M29.2966 0L36.028 14.7028L42.7593 0H50L39.3936 20.5041V32.2398H32.6623V20.5041L22.0338 0H29.2966Z"></path>
    </g>
  </symbol>
  <symbol id="menu" version="1.1" xml:space="preserve" xmlns="http://www.w3.org/2000/svg" xmlns:xlink="http://www.w3.org/1999/xlink" viewBox="0 0 32 32">
    <path d="M4,10h24c1.104,0,2-0.896,2-2s-0.896-2-2-2H4C2.896,6,2,6.896,2,8S2.896,10,4,10z M28,14H4c-1.104,0-2,0.896-2,2  s0.896,2,2,2h24c1.104,0,2-0.896,2-2S29.104,14,28,14z M28,22H4c-1.104,0-2,0.896-2,2s0.896,2,2,2h24c1.104,0,2-0.896,2-2  S29.104,22,28,22z"></path>
  </symbol>
  <symbol xmlns="http://www.w3.org/2000/svg" viewBox="0 0 60 60" id="skills">
    <defs></defs>
    <title></title>
    <g id="Layer_2">
      <g id="Icons">
        <g id="Development">
          <rect height="60" width="60"></rect>
          <circle cx="9.33" cy="15.74" r="1"></circle>
          <circle cx="16" cy="15.74" r="1"></circle>
          <circle cx="12.67" cy="15.74" r="1"></circle>
          <path d="M20,30.25l3-3a1,1,0,1,0-1.42-1.42l-3.72,3.73a1,1,0,0,0,0,1.41l3.72,3.73a1,1,0,0,0,1.42,0,1,1,0,0,0,0-1.41Z"></path>
          <path d="M34.32,34.68a1,1,0,0,0,1.41,0L39.46,31a1,1,0,0,0,0-1.41l-3.73-3.73a1,1,0,0,0-1.41,1.42l3,3-3,3A1,1,0,0,0,34.32,34.68Z"></path>
          <path d="M31,26.15a1,1,0,0,0-1.37.37L25.94,33a1,1,0,1,0,1.73,1l3.73-6.45A1,1,0,0,0,31,26.15Z"></path>
          <path d="M55.86,40a.29.29,0,0,1-.27-.19,10.43,10.43,0,0,0-1.67-2.89.29.29,0,0,1,0-.33,2.3,2.3,0,0,0-.84-3.14L52.33,33V14.74a3,3,0,0,0-3-3H8a3,3,0,0,0-3,3V40.08a2.34,2.34,0,0,0,2.33,2.33H21l-1,3.7H18.67a4.33,4.33,0,0,0-4.21,3.33H12a1,1,0,0,0,0,2H37.47a2.12,2.12,0,0,0,.07.71,2.25,2.25,0,0,0,1.07,1.4l2.11,1.22a2.3,2.3,0,0,0,3.14-.85.31.31,0,0,1,.31-.14,9.74,9.74,0,0,0,3.32,0,.3.3,0,0,1,.31.15,2.3,2.3,0,0,0,2,1.14,2.27,2.27,0,0,0,1.15-.3l2.11-1.22a2.29,2.29,0,0,0,1.07-1.4,2.26,2.26,0,0,0-.23-1.74.3.3,0,0,1,0-.34,10.52,10.52,0,0,0,1.67-2.88.28.28,0,0,1,.27-.19,2.31,2.31,0,0,0,2.3-2.3V42.26A2.3,2.3,0,0,0,55.86,40ZM7,14.74a1,1,0,0,1,1-1H49.33a1,1,0,0,1,1,1v3H7Zm.33,25.67A.33.33,0,0,1,7,40.08V19.74H50.33V32A2.29,2.29,0,0,0,47.8,33h0a.29.29,0,0,1-.3.13,10.27,10.27,0,0,0-3.32,0,.28.28,0,0,1-.3-.13h0a2.29,2.29,0,0,0-3.14-.84l-2.11,1.22a2.24,2.24,0,0,0-1.07,1.39,2.32,2.32,0,0,0,.22,1.75.27.27,0,0,1,0,.33,10.43,10.43,0,0,0-1.67,2.89.29.29,0,0,1-.27.19,2.29,2.29,0,0,0-1.36.45ZM34,46.11H22l1-3.7H33.5V44.7A2.32,2.32,0,0,0,34,46.11Zm-15.32,2H36.48a11,11,0,0,0,.78,1.33H16.57A2.33,2.33,0,0,1,18.67,48.11ZM56.16,44.7a.3.3,0,0,1-.3.3,2.31,2.31,0,0,0-2.15,1.48,8.46,8.46,0,0,1-1.34,2.33,2.31,2.31,0,0,0-.21,2.6.26.26,0,0,1,0,.22.29.29,0,0,1-.14.19L49.94,53a.3.3,0,0,1-.41-.12,2.31,2.31,0,0,0-2.37-1.11,7.92,7.92,0,0,1-2.66,0,2.31,2.31,0,0,0-2.37,1.12.31.31,0,0,1-.41.11l-2.11-1.22a.29.29,0,0,1-.14-.19.26.26,0,0,1,0-.22,2.33,2.33,0,0,0-.21-2.6,8.35,8.35,0,0,1-1.35-2.33A2.28,2.28,0,0,0,35.8,45a.3.3,0,0,1-.3-.3V42.26a.29.29,0,0,1,.3-.3,2.3,2.3,0,0,0,2.14-1.48,8.21,8.21,0,0,1,1.35-2.33,2.33,2.33,0,0,0,.21-2.6.28.28,0,0,1,0-.23.26.26,0,0,1,.14-.18l2.11-1.22a.28.28,0,0,1,.15,0,.3.3,0,0,1,.25.14h0a2.32,2.32,0,0,0,2.37,1.12,7.92,7.92,0,0,1,2.66,0A2.33,2.33,0,0,0,49.53,34h0a.29.29,0,0,1,.4-.1l2.11,1.22a.26.26,0,0,1,.14.18.28.28,0,0,1,0,.23,2.3,2.3,0,0,0,.21,2.59,8.51,8.51,0,0,1,1.34,2.34A2.32,2.32,0,0,0,55.86,42a.29.29,0,0,1,.3.3Z"></path>
          <path d="M45.83,38.94a4.54,4.54,0,1,0,4.54,4.54A4.54,4.54,0,0,0,45.83,38.94Zm0,7.08a2.54,2.54,0,1,1,2.54-2.54A2.54,2.54,0,0,1,45.83,46Z"></path>
        </g>
      </g>
    </g>
  </symbol>
  <symbol xmlns="http://www.w3.org/2000/svg" viewBox="0 0 24 24" id="twitter">
    <path d="M24 4.557c-.883.392-1.832.656-2.828.775 1.017-.609 1.798-1.574 2.165-2.724-.951.564-2.005.974-3.127 1.195-.897-.957-2.178-1.555-3.594-1.555-3.179 0-5.515 2.966-4.797 6.045-4.091-.205-7.719-2.165-10.148-5.144-1.29 2.213-.669 5.108 1.523 6.574-.806-.026-1.566-.247-2.229-.616-.054 2.281 1.581 4.415 3.949 4.89-.693.188-1.452.232-2.224.084.626 1.956 2.444 3.379 4.6 3.419-2.07 1.623-4.678 2.348-7.29 2.04 2.179 1.397 4.768 2.212 7.548 2.212 9.142 0 14.307-7.721 13.995-14.646.962-.695 1.797-1.562 2.457-2.549z"></path>
  </symbol>
  <symbol id="work" xmlns="http://www.w3.org/2000/svg" viewBox="0 0 32 32">
    <defs></defs>
    <title></title>
    <path d="M28,8H21V6a2,2,0,0,0-2-2H13a2,2,0,0,0-2,2V8H4a2,2,0,0,0-2,2V26a2,2,0,0,0,2,2H28a2,2,0,0,0,2-2V10A2,2,0,0,0,28,8ZM13,6h6V8H13Zm15,4v9H4V10ZM4,26V21H28v5Z"></path>
    <path d="M15,18h2a1,1,0,0,0,0-2H15a1,1,0,0,0,0,2Z"></path>
  </symbol>
</svg>