<svg width="0" height="0" class="hidden">
  <symbol fill="none" xmlns="http://www.w3.org/2000/svg" viewBox="0 0 45 50" id="html">
    <path d="M4.01069 45.017L0 0H44.0933L40.0826 44.9927L22.0102 50" fill="#E44D26"></path>
    <path d="M22.0467 46.1716V3.6947H40.0705L36.631 42.1001" fill="#F16529"></path>
    <path d="M8.19153 9.20032H22.0467V14.7181H14.244L14.7545 20.3695H22.0467V25.8751H9.69858L8.19153 9.20032ZM9.94165 28.6461H15.4837L15.8726 33.0579L22.0467 34.7108V40.4716L10.7195 37.3116" fill="#EBEBEB"></path>
    <path d="M35.8532 9.20032H22.0224V14.7181H35.3428L35.8532 9.20032ZM34.8445 20.3695H22.0224V25.8872H28.8284L28.1843 33.0579L22.0224 34.7108V40.4473L33.3253 37.3117" fill="white"></path>
  </symbol>
  <symbol fill="none" xmlns="http://www.w3.org/2000/svg" viewBox="0 0 67 50" id="sass">
    <g clip-path="url(#clip0_12_469)">
      <path d="M57.4038 28.7385C55.0779 28.7506 53.0565 29.3108 51.3638 30.1389C50.7428 28.9089 50.1217 27.813 50.0121 27.0093C49.8904 26.0716 49.7443 25.4993 49.8904 24.379C50.0365 23.2587 50.6941 21.6635 50.6819 21.5417C50.6697 21.4199 50.5358 20.8476 49.1963 20.8354C47.8568 20.8232 46.6999 21.0911 46.566 21.4443C46.432 21.7974 46.1763 22.6011 46.0058 23.4292C45.7744 24.6469 43.3268 28.9942 41.9264 31.2713C41.4759 30.3824 41.0862 29.6031 41.001 28.982C40.8792 28.0444 40.7331 27.472 40.8792 26.3517C41.0253 25.2314 41.6829 23.6362 41.6707 23.5144C41.6585 23.3926 41.5246 22.8203 40.1851 22.8081C38.8456 22.7959 37.6887 23.0638 37.5548 23.417C37.4208 23.7701 37.2747 24.5982 36.9946 25.4019C36.7145 26.2056 33.4632 33.4633 32.6108 35.3386C32.1724 36.3006 31.7949 37.0677 31.527 37.5914C31.527 37.5914 31.5148 37.6279 31.4783 37.6888C31.2469 38.1393 31.113 38.3829 31.113 38.3829C31.113 38.3829 31.113 38.3829 31.113 38.3951C30.9303 38.7239 30.7355 39.0283 30.6381 39.0283C30.565 39.0283 30.4311 38.1515 30.6624 36.9581C31.1495 34.4374 32.3064 30.5164 32.2942 30.3824C32.2942 30.3093 32.5134 29.6274 31.5392 29.2743C30.5894 28.9211 30.2484 29.5056 30.1632 29.5056C30.0779 29.5056 30.017 29.7127 30.017 29.7127C30.017 29.7127 31.0765 25.3045 27.9956 25.3045C26.0716 25.3045 23.4169 27.4111 22.1018 29.3108C21.2737 29.7614 19.508 30.7234 17.6205 31.7584C16.9021 32.1603 16.1593 32.5621 15.4652 32.9396C15.4165 32.8909 15.3677 32.83 15.319 32.7813C11.5928 28.7994 4.70044 25.9864 4.99269 20.6406C5.10229 18.6922 5.77204 13.5777 18.2294 7.3673C28.4827 2.31372 36.6415 3.71411 38.054 6.81933C40.0755 11.2519 33.6824 19.4837 23.0882 20.6771C19.0453 21.1277 16.9264 19.569 16.3906 18.9844C15.8305 18.3756 15.7452 18.3391 15.5382 18.4608C15.1973 18.6435 15.4165 19.1915 15.5382 19.5081C15.8548 20.3361 17.1578 21.7974 19.3619 22.5159C21.3103 23.1491 26.0472 23.5022 31.7827 21.286C38.2002 18.8018 43.2172 11.8973 41.7438 6.11304C40.2703 0.243584 30.5285 -1.69261 21.3103 1.58309C15.8305 3.53146 9.88797 6.60013 5.61374 10.5943C0.535804 15.3434 -0.267897 19.4715 0.0608902 21.2007C1.24209 27.3381 9.70531 31.3322 13.0906 34.2913C12.9201 34.3887 12.7618 34.474 12.6279 34.547C10.9352 35.3873 4.48125 38.7604 2.87385 42.3283C1.04725 46.3712 3.1661 49.2694 4.56649 49.6591C8.91378 50.8646 13.3828 48.6971 15.7818 45.1169C18.1807 41.5368 17.8884 36.8851 16.7803 34.7541C16.7681 34.7297 16.756 34.7053 16.7316 34.681C17.17 34.4253 17.6205 34.1574 18.0589 33.9016C18.9235 33.3902 19.7759 32.9153 20.5066 32.5256C20.0925 33.6581 19.7881 35.0098 19.642 36.9581C19.4593 39.2475 20.397 42.2187 21.6269 43.3878C22.1749 43.8992 22.8203 43.9114 23.2343 43.9114C24.6712 43.9114 25.3166 42.718 26.0351 41.3054C26.9118 39.5763 27.7033 37.567 27.7033 37.567C27.7033 37.567 26.717 42.9981 29.396 42.9981C30.3702 42.9981 31.3565 41.7316 31.7949 41.0862C31.7949 41.0984 31.7949 41.0984 31.7949 41.0984C31.7949 41.0984 31.8193 41.0619 31.868 40.9767C31.9654 40.8183 32.0263 40.7209 32.0263 40.7209C32.0263 40.7209 32.0263 40.7088 32.0263 40.6966C32.416 40.0146 33.2927 38.4681 34.5957 35.8987C36.2762 32.5865 37.8957 28.4462 37.8957 28.4462C37.8957 28.4462 38.0419 29.4569 38.5411 31.1374C38.8334 32.1238 39.4423 33.2075 39.9293 34.2548C39.5397 34.8028 39.2961 35.1072 39.2961 35.1072C39.2961 35.1072 39.2961 35.1072 39.3083 35.1194C38.9917 35.5334 38.6507 35.984 38.2732 36.4223C36.9459 38.0054 35.3629 39.8198 35.1437 40.3434C34.888 40.9645 34.9488 41.415 35.4359 41.7804C35.7891 42.0483 36.4223 42.0848 37.0677 42.0483C38.2611 41.963 39.1013 41.6708 39.5153 41.4881C40.1607 41.2567 40.9157 40.9036 41.622 40.38C42.925 39.418 43.7165 38.0419 43.6434 36.2275C43.6069 35.229 43.2781 34.2304 42.8763 33.2928C42.998 33.1223 43.1076 32.9518 43.2294 32.7813C45.2874 29.7735 46.8826 26.4735 46.8826 26.4735C46.8826 26.4735 47.0287 27.4842 47.528 29.1647C47.7715 30.0171 48.2708 30.9426 48.7092 31.8437C46.773 33.4145 45.5796 35.2411 45.1534 36.4345C44.3862 38.6508 44.9829 39.6493 46.1154 39.8807C46.6269 39.9903 47.3575 39.7467 47.8933 39.5154C48.5752 39.2962 49.3789 38.9187 50.1461 38.3585C51.4491 37.3965 52.7033 36.057 52.6303 34.2426C52.5937 33.4145 52.3745 32.5987 52.0701 31.8071C53.714 31.1252 55.8329 30.7477 58.5363 31.0643C64.3326 31.7463 65.4773 35.3629 65.2581 36.8851C65.0389 38.4072 63.8212 39.2353 63.4193 39.491C63.0175 39.7467 62.8836 39.832 62.9201 40.0146C62.9688 40.2825 63.1636 40.2704 63.5046 40.2217C63.9795 40.1364 66.5489 38.9918 66.6585 36.191C66.8412 32.6108 63.4315 28.7019 57.4038 28.7385ZM12.6887 43.814C10.7647 45.9085 8.08573 46.7 6.92888 46.0302C5.6868 45.3118 6.17389 42.2187 8.53629 40.0025C9.97321 38.6508 11.8242 37.3965 13.0541 36.6294C13.3341 36.4589 13.7482 36.2153 14.2474 35.9109C14.3327 35.8622 14.3814 35.8378 14.3814 35.8378C14.4788 35.7769 14.5762 35.7161 14.6736 35.6552C15.5382 38.8213 14.7102 41.6099 12.6887 43.814ZM26.6926 34.2913C26.0229 35.9231 24.6225 40.0999 23.7701 39.8685C23.0394 39.6737 22.5889 36.5076 23.624 33.378C24.1476 31.8071 25.2557 29.9318 25.9011 29.2012C26.9484 28.0322 28.1052 27.6425 28.3853 28.1174C28.7384 28.7385 27.1067 33.2684 26.6926 34.2913ZM38.2489 39.8198C37.9688 39.9659 37.7009 40.0634 37.5791 39.9903C37.4939 39.9416 37.7009 39.7467 37.7009 39.7467C37.7009 39.7467 39.15 38.188 39.7223 37.4818C40.0511 37.0677 40.4408 36.5806 40.8548 36.0327C40.8548 36.0814 40.8548 36.1423 40.8548 36.191C40.8548 38.0541 39.0526 39.3084 38.2489 39.8198ZM47.1627 37.7862C46.9556 37.6401 46.9922 37.153 47.6863 35.6308C47.9542 35.0341 48.5874 34.0356 49.6712 33.0736C49.793 33.4633 49.8782 33.8408 49.866 34.1939C49.8538 36.5441 48.1734 37.4209 47.1627 37.7862Z" fill="#CD6799"></path>
    </g>
    <defs>
      <clipPath id="clip0_12_469">
        <rect width="66.7073" height="50" fill="white"></rect>
      </clipPath>
    </defs>
  </symbol>
  <symbol fill="none" xmlns="http://www.w3.org/2000/svg" viewBox="0 0 50 50" id="javascript">
    <path d="M50 0H0V50H50V0Z" fill="#F7DF1E"></path>
    <path d="M33.5873 39.0627C34.5944 40.7072 35.9048 41.9159 38.2222 41.9159C40.1691 41.9159 41.4127 40.9429 41.4127 39.5984C41.4127 37.9873 40.1349 37.4167 37.9921 36.4794L36.8175 35.9754C33.427 34.531 31.1746 32.7214 31.1746 28.896C31.1746 25.3722 33.8595 22.6897 38.0556 22.6897C41.0429 22.6897 43.1905 23.7294 44.7381 26.4516L41.0794 28.8008C40.2738 27.3564 39.4048 26.7873 38.0556 26.7873C36.6794 26.7873 35.8071 27.6603 35.8071 28.8008C35.8071 30.2103 36.6802 30.781 38.696 31.654L39.8706 32.1572C43.8627 33.8691 46.1167 35.6143 46.1167 39.5381C46.1167 43.7683 42.7937 46.0857 38.331 46.0857C33.9675 46.0857 31.1484 44.0064 29.7691 41.281L33.5873 39.0627ZM16.9897 39.4699C17.7278 40.7794 18.3992 41.8865 20.0135 41.8865C21.5572 41.8865 22.531 41.2826 22.531 38.9341V22.9579H27.2294V38.9976C27.2294 43.8627 24.377 46.077 20.2135 46.077C16.4516 46.077 14.273 44.1302 13.1651 41.7853L16.9897 39.4699Z" fill="black"></path>
  </symbol>
  <symbol fill="none" xmlns="http://www.w3.org/2000/svg" viewBox="0 0 51 50" id="git">
    <path d="M49.0593 22.773L27.2266 0.943003C25.9704 -0.314334 23.9313 -0.314334 22.6735 0.943003L18.1402 5.47676L23.8906 11.2271C25.2274 10.7758 26.7597 11.0784 27.8248 12.1437C28.8954 13.2156 29.1959 14.761 28.7332 16.1023L34.2755 21.6446C35.6164 21.1825 37.1634 21.4811 38.2341 22.5536C39.731 24.0501 39.731 26.4749 38.2341 27.9718C36.737 29.4691 34.3122 29.4691 32.8142 27.9718C31.6887 26.8453 31.4103 25.1916 31.9804 23.8048L26.8115 18.636L26.8111 32.2377C27.176 32.4184 27.5204 32.6595 27.8245 32.9623C29.321 34.4585 29.321 36.8829 27.8245 38.3817C26.3277 39.8779 23.9017 39.8779 22.4064 38.3817C20.9098 36.8831 20.9098 34.4587 22.4064 32.9623C22.7763 32.593 23.2043 32.3136 23.661 32.1263V18.3982C23.2041 18.2116 22.7766 17.9343 22.4062 17.5621C21.2725 16.4293 20.9995 14.7655 21.5809 13.3733L15.9121 7.70374L0.943299 22.6721C-0.314433 23.9304 -0.314433 25.9695 0.943299 27.227L22.7747 49.057C24.0316 50.3143 26.0699 50.3143 27.3286 49.057L49.059 27.3301C50.3163 26.0721 50.3163 24.0324 49.059 22.7748" fill="#F05133"></path>
  </symbol>
  <symbol fill="none" xmlns="http://www.w3.org/2000/svg" viewBox="0 0 50 50" id="windows">
    <path d="M0 7.1347L20.3767 4.3379V24.0297H0V7.1347ZM22.8311 3.93836L49.8288 0V23.8584H22.8311V3.93836ZM0 26.1073H20.3767V45.8562L0 43.0023V26.1073ZM22.8311 26.3699H49.8288V50L22.8311 46.1758V26.3699Z" fill="#0078D6"></path>
  </symbol>
  <symbol fill="none" xmlns="http://www.w3.org/2000/svg" viewBox="0 0 50 50" id="vs">
    <g clip-path="url(#clip0_13_496)">
      <mask id="mask0_13_496" maskUnits="userSpaceOnUse" x="0" y="0" width="50" height="50">
        <path fill-rule="evenodd" clip-rule="evenodd" d="M35.456 49.6585C36.2435 49.9653 37.1414 49.9457 37.9362 49.5632L48.2304 44.6098C49.3121 44.0893 50 42.9946 50 41.7936V8.20662C50 7.00562 49.3121 5.91087 48.2304 5.39037L37.9362 0.436847C36.8931 -0.0650954 35.6723 0.0578492 34.7567 0.723444C34.626 0.818524 34.5014 0.924684 34.3845 1.04167L14.6776 19.0207L6.0936 12.5048C5.2945 11.8982 4.17682 11.9479 3.43467 12.623L0.681515 15.1274C-0.226276 15.9532 -0.227316 17.3813 0.679265 18.2085L8.12355 25L0.679265 31.7916C-0.227316 32.6187 -0.226276 34.0469 0.681515 34.8726L3.43467 37.377C4.17682 38.0521 5.2945 38.1018 6.0936 37.4952L14.6776 30.9793L34.3845 48.9583C34.6962 49.2703 35.0623 49.5052 35.456 49.6585ZM37.5076 13.6494L22.5546 25L37.5076 36.3506V13.6494Z" fill="white"></path>
      </mask>
      <g mask="url(#mask0_13_496)">
        <path d="M48.2611 5.39815L37.9588 0.437817C36.7663 -0.136341 35.3412 0.105851 34.4054 1.04171L0.679681 31.7916C-0.227456 32.6187 -0.226413 34.0469 0.681931 34.8726L3.43675 37.377C4.17936 38.0521 5.29774 38.1018 6.09729 37.4953L46.7108 6.685C48.0734 5.65135 50.0304 6.62315 50.0304 8.3334V8.2138C50.0304 7.0133 49.3427 5.91895 48.2611 5.39815Z" fill="#0065A9"></path>
        <g filter="url(#filter0_d_13_496)">
          <path d="M48.2611 44.6019L37.9588 49.5622C36.7663 50.1365 35.3412 49.8942 34.4054 48.9583L0.679681 18.2084C-0.227456 17.3813 -0.226413 15.9531 0.681931 15.1274L3.43675 12.623C4.17936 11.9479 5.29774 11.8982 6.09729 12.5047L46.7108 43.315C48.0734 44.3487 50.0304 43.3769 50.0304 41.6667V41.7863C50.0304 42.9867 49.3427 44.0811 48.2611 44.6019Z" fill="#007ACC"></path>
        </g>
        <g filter="url(#filter1_d_13_496)">
          <path d="M37.9593 49.5632C36.7664 50.137 35.3413 49.8943 34.4054 48.9583C35.5586 50.1115 37.5304 49.2948 37.5304 47.6639V2.3361C37.5304 0.705226 35.5586 -0.111522 34.4054 1.04168C35.3413 0.105732 36.7664 -0.136802 37.9593 0.436847L48.2597 5.39038C49.3421 5.91088 50.0304 7.00563 50.0304 8.20663V41.7936C50.0304 42.9946 49.3421 44.0893 48.2597 44.6098L37.9593 49.5632Z" fill="#1F9CF0"></path>
        </g>
        <g opacity="0.25">
          <path opacity="0.25" fill-rule="evenodd" clip-rule="evenodd" d="M35.4559 49.6587C36.2434 49.9654 37.1414 49.9458 37.9362 49.5633L48.2304 44.61C49.3121 44.0895 50 42.9947 50 41.7937V8.20677C50 7.00572 49.3121 5.91097 48.2304 5.39047L37.9362 0.43697C36.8931 -0.064973 35.6723 0.0579715 34.7567 0.723562C34.626 0.818647 34.5014 0.924807 34.3845 1.0418L14.6775 19.0208L6.09359 12.5049C5.29454 11.8983 4.17682 11.9481 3.43467 12.6231L0.681516 15.1275C-0.226276 15.9533 -0.227316 17.3815 0.679266 18.2086L8.12354 25.0001L0.679266 31.7917C-0.227316 32.6188 -0.226276 34.047 0.681516 34.8727L3.43467 37.3771C4.17682 38.0522 5.29454 38.1019 6.09359 37.4954L14.6775 30.9794L34.3845 48.9585C34.6962 49.2704 35.0623 49.5053 35.4559 49.6587ZM37.5076 13.6496L22.5545 25.0001L37.5076 36.3507V13.6496Z" fill="url(#paint0_linear_13_496)"></path>
        </g>
      </g>
    </g>
    <defs>
      <filter id="filter0_d_13_496" x="-8.33334" y="3.74784" width="66.6971" height="54.4562" filterUnits="userSpaceOnUse" color-interpolation-filters="sRGB">
        <feFlood flood-opacity="0" result="BackgroundImageFix"></feFlood>
        <feColorMatrix in="SourceAlpha" type="matrix" values="0 0 0 0 0 0 0 0 0 0 0 0 0 0 0 0 0 0 127 0" result="hardAlpha"></feColorMatrix>
        <feOffset></feOffset>
        <feGaussianBlur stdDeviation="4.16667"></feGaussianBlur>
        <feColorMatrix type="matrix" values="0 0 0 0 0 0 0 0 0 0 0 0 0 0 0 0 0 0 0.25 0"></feColorMatrix>
        <feBlend mode="overlay" in2="BackgroundImageFix" result="effect1_dropShadow_13_496"></feBlend>
        <feBlend mode="normal" in="SourceGraphic" in2="effect1_dropShadow_13_496" result="shape"></feBlend>
      </filter>
      <filter id="filter1_d_13_496" x="26.0721" y="-8.20443" width="32.2917" height="66.409" filterUnits="userSpaceOnUse" color-interpolation-filters="sRGB">
        <feFlood flood-opacity="0" result="BackgroundImageFix"></feFlood>
        <feColorMatrix in="SourceAlpha" type="matrix" values="0 0 0 0 0 0 0 0 0 0 0 0 0 0 0 0 0 0 127 0" result="hardAlpha"></feColorMatrix>
        <feOffset></feOffset>
        <feGaussianBlur stdDeviation="4.16667"></feGaussianBlur>
        <feColorMatrix type="matrix" values="0 0 0 0 0 0 0 0 0 0 0 0 0 0 0 0 0 0 0.25 0"></feColorMatrix>
        <feBlend mode="overlay" in2="BackgroundImageFix" result="effect1_dropShadow_13_496"></feBlend>
        <feBlend mode="normal" in="SourceGraphic" in2="effect1_dropShadow_13_496" result="shape"></feBlend>
      </filter>
      <linearGradient id="paint0_linear_13_496" x1="25" y1="0.129028" x2="25" y2="49.8713" gradientUnits="userSpaceOnUse">
        <stop stop-color="white"></stop>
        <stop offset="1" stop-color="white" stop-opacity="0"></stop>
      </linearGradient>
      <clipPath id="clip0_13_496">
        <rect width="50" height="50" fill="white"></rect>
      </clipPath>
    </defs>
  </symbol>
  <symbol fill="none" xmlns="http://www.w3.org/2000/svg" viewBox="0 0 52 50" id="ae">
    <g clip-path="url(#clip0_13_536)">
      <path d="M9.0812 0H42.2009C47.2222 0 51.2821 4.05983 51.2821 9.0812V40.9188C51.2821 45.9402 47.2222 50 42.2009 50H9.0812C4.05983 50 0 45.9402 0 40.9188V9.0812C0 4.05983 4.05983 0 9.0812 0Z" fill="#00005B"></path>
      <path d="M20.5983 29.9146H12.6496L11.0256 34.9573C10.9829 35.1496 10.812 35.2778 10.6197 35.2565H6.60257C6.36753 35.2565 6.30342 35.1282 6.36753 34.8718L13.2479 15.1496C13.312 14.9359 13.3761 14.7436 13.4615 14.4872C13.547 14.0385 13.5897 13.5684 13.5897 13.0983C13.5684 12.9915 13.6538 12.8846 13.7607 12.8633H13.8248H19.2949C19.4444 12.8633 19.5513 12.9274 19.5726 13.0342L27.3718 34.8291C27.4359 35.0641 27.3718 35.171 27.1581 35.171H22.6923C22.5427 35.1924 22.3932 35.0855 22.3504 34.9359L20.5983 29.8077V29.9146ZM13.8889 25.6624H19.3162C19.188 25.2137 19.0171 24.6795 18.8248 24.124C18.6325 23.547 18.4402 22.9274 18.2479 22.2864C18.0342 21.624 17.8419 20.9829 17.6282 20.3205C17.4145 19.6582 17.2222 19.0385 17.0513 18.4188C16.8803 17.8205 16.7308 17.265 16.5812 16.7522H16.5385C16.3462 17.671 16.1111 18.5898 15.812 19.5086C15.4915 20.5342 15.1709 21.6026 14.8291 22.671C14.5513 23.7607 14.2094 24.765 13.8889 25.6624Z" fill="#9999FF"></path>
      <path d="M39.9572 27.9914H33.1837C33.2692 28.6538 33.4829 29.3162 33.8461 29.8932C34.2307 30.4701 34.7649 30.9188 35.406 31.1752C36.2607 31.5385 37.2008 31.7308 38.141 31.7094C38.8889 31.688 39.6367 31.6239 40.3632 31.4744C41.0256 31.3889 41.6666 31.2179 42.2649 30.9829C42.3718 30.8974 42.4359 30.9402 42.4359 31.1538V34.4231C42.4359 34.5085 42.4145 34.594 42.3931 34.6795C42.3504 34.7436 42.3077 34.7863 42.2436 34.8291C41.5598 35.1282 40.8547 35.3419 40.1068 35.4701C39.1025 35.6624 38.0983 35.7479 37.0726 35.7265C35.4487 35.7265 34.0812 35.4701 32.9701 34.9786C31.9231 34.5299 31.0042 33.8248 30.2778 32.9487C29.594 32.1154 29.1025 31.1752 28.8034 30.1496C28.5042 29.1453 28.3547 28.0983 28.3547 27.0299C28.3547 25.8761 28.5256 24.7436 28.8889 23.6325C29.2307 22.5641 29.7649 21.5812 30.4914 20.7051C31.1966 19.8504 32.0726 19.1667 33.0769 18.6752C34.0812 18.1837 35.2778 18.0128 36.6453 18.0128C37.7778 17.9914 38.9102 18.2051 39.9572 18.6752C40.8333 19.0598 41.6025 19.6367 42.2008 20.3846C42.7564 21.1111 43.2051 21.9231 43.4829 22.8205C43.7607 23.6752 43.8889 24.5513 43.8889 25.4273C43.8889 25.9402 43.8675 26.3889 43.8461 26.7949C43.8034 27.2008 43.782 27.5 43.7607 27.6923C43.7393 27.8419 43.6111 27.9701 43.4615 27.9701C43.3333 27.9701 43.0983 27.9914 42.7564 28.0128C42.4145 28.0555 42.0085 28.0769 41.5171 28.0769C41.0256 28.0769 40.5128 27.9914 39.9572 27.9914ZM33.1837 24.8718H37.6923C38.2478 24.8718 38.6538 24.8718 38.9102 24.8504C39.0812 24.829 39.2521 24.7863 39.4017 24.6795V24.4658C39.4017 24.188 39.359 23.9316 39.2735 23.6752C38.8889 22.4786 37.7564 21.6667 36.4957 21.7094C35.3205 21.6453 34.2094 22.2649 33.6538 23.3333C33.3974 23.8248 33.2478 24.3376 33.1837 24.8718Z" fill="#9999FF"></path>
    </g>
    <defs>
      <clipPath id="clip0_13_536">
        <rect width="51.2821" height="50" fill="white"></rect>
      </clipPath>
    </defs>
  </symbol>
  <symbol fill="none" xmlns="http://www.w3.org/2000/svg" viewBox="0 0 52 50" id="illustrator">
    <g clip-path="url(#clip0_13_526)">
      <path d="M9.0812 0H42.2009C47.2222 0 51.2821 4.05983 51.2821 9.0812V40.9188C51.2821 45.9402 47.2222 50 42.2009 50H9.0812C4.05983 50 0 45.9402 0 40.9188V9.0812C0 4.05983 4.05983 0 9.0812 0Z" fill="#330000"></path>
      <path d="M24.7863 29.9145H16.8376L15.2137 34.9358C15.1709 35.1282 15 35.2564 14.8077 35.235H10.7906C10.5555 35.235 10.4914 35.1068 10.5555 34.8504L17.4359 15.0427C17.5 14.829 17.5641 14.594 17.6496 14.3376C17.735 13.8888 17.7778 13.4188 17.7778 12.9487C17.7564 12.8418 17.8419 12.735 17.9487 12.7136H18.0128H23.4829C23.6538 12.7136 23.7393 12.7777 23.7607 12.8846L31.5598 34.8931C31.6239 35.1282 31.5598 35.235 31.3461 35.235H26.8803C26.7308 35.2564 26.5812 35.1495 26.5384 35L24.7863 29.9145ZM18.0769 25.5769H23.5043C23.3761 25.1282 23.2051 24.594 23.0128 24.0384C22.8205 23.4615 22.6282 22.8418 22.4359 22.2008C22.2222 21.5384 22.0299 20.8974 21.8162 20.235C21.6025 19.5726 21.4102 18.9529 21.2393 18.3333C21.0684 17.735 20.9188 17.1794 20.7692 16.6666H20.7265C20.5342 17.5854 20.2991 18.5042 20 19.423C19.6795 20.4487 19.359 21.517 19.0171 22.5854C18.7179 23.6752 18.3974 24.6794 18.0769 25.5769Z" fill="#FF9A00"></path>
      <path d="M36.3248 16.453C35.6196 16.4743 34.9359 16.1966 34.423 15.7051C33.9316 15.1709 33.6752 14.4658 33.6965 13.7393C33.6752 13.0128 33.953 12.329 34.4658 11.8376C34.9786 11.3461 35.6624 11.0897 36.3675 11.0897C37.2008 11.0897 37.8418 11.3461 38.3119 11.8376C38.782 12.3504 39.0384 13.0342 39.0171 13.7393C39.0384 14.4658 38.782 15.1709 38.2692 15.7051C37.7777 16.2179 37.0512 16.4957 36.3248 16.453ZM33.9316 35V18.547C33.9316 18.3333 34.0171 18.2478 34.2094 18.2478H38.4401C38.6324 18.2478 38.7179 18.3547 38.7179 18.547V35C38.7179 35.235 38.6324 35.3419 38.4401 35.3419H34.2521C34.0384 35.3419 33.9316 35.2137 33.9316 35Z" fill="#FF9A00"></path>
    </g>
    <defs>
      <clipPath id="clip0_13_526">
        <rect width="51.2821" height="50" fill="white"></rect>
      </clipPath>
    </defs>
  </symbol>
  <symbol fill="none" xmlns="http://www.w3.org/2000/svg" viewBox="0 0 52 50" id="photoshop">
    <g clip-path="url(#clip0_13_510)">
      <path d="M9.0812 0H42.2009C47.2222 0 51.2821 4.05983 51.2821 9.0812V40.9188C51.2821 45.9402 47.2222 50 42.2009 50H9.0812C4.05983 50 0 45.9402 0 40.9188V9.0812C0 4.05983 4.05983 0 9.0812 0Z" fill="#001E36"></path>
      <path d="M11.5385 35.0641V13.0769C11.5385 12.9273 11.6026 12.8418 11.7521 12.8418C12.1154 12.8418 12.4573 12.8418 12.9487 12.8205C13.4615 12.7991 13.9957 12.7991 14.5726 12.7777C15.1496 12.7564 15.7692 12.7564 16.4316 12.735C17.094 12.7136 17.735 12.7136 18.3761 12.7136C20.1282 12.7136 21.5812 12.9273 22.7778 13.376C23.8462 13.7393 24.8291 14.3376 25.641 15.1282C26.3248 15.8119 26.859 16.6452 27.2009 17.564C27.5214 18.4615 27.6923 19.3803 27.6923 20.3418C27.6923 22.1794 27.265 23.6965 26.4103 24.8931C25.5556 26.0897 24.359 26.9871 22.9701 27.4999C21.5171 28.0341 19.9145 28.2264 18.1624 28.2264C17.6496 28.2264 17.3077 28.2264 17.094 28.2051C16.8803 28.1837 16.5812 28.1837 16.1752 28.1837V35.0427C16.1966 35.1923 16.0897 35.3205 15.9402 35.3418C15.9188 35.3418 15.8974 35.3418 15.8547 35.3418H11.7949C11.6239 35.3418 11.5385 35.2564 11.5385 35.0641ZM16.1966 16.9658V24.1452C16.4957 24.1666 16.7735 24.188 17.0299 24.188H18.1624C18.9957 24.188 19.8291 24.0598 20.6197 23.8034C21.3034 23.6111 21.9017 23.2051 22.3718 22.6709C22.8205 22.1367 23.0342 21.4102 23.0342 20.47C23.0556 19.8076 22.8846 19.1452 22.5427 18.5683C22.1795 18.0128 21.6667 17.5854 21.047 17.3504C20.2564 17.0299 19.4017 16.9017 18.5256 16.923C17.9701 16.923 17.4786 16.923 17.0726 16.9444C16.6453 16.923 16.3462 16.9444 16.1966 16.9658Z" fill="#31A8FF"></path>
      <path d="M41.0256 22.8419C40.3846 22.5 39.7008 22.265 38.9743 22.1154C38.1837 21.9444 37.3932 21.8376 36.5812 21.8376C36.1538 21.8162 35.7051 21.8803 35.2991 21.9872C35.0214 22.0513 34.7863 22.2009 34.6367 22.4145C34.5299 22.5855 34.4658 22.7991 34.4658 22.9914C34.4658 23.1838 34.5513 23.3761 34.6795 23.547C34.8718 23.782 35.1282 23.9744 35.406 24.1239C35.8974 24.3803 36.4102 24.6154 36.9231 24.8291C38.0769 25.2137 39.188 25.7479 40.2137 26.3889C40.9188 26.8376 41.4957 27.4359 41.9017 28.1624C42.2436 28.8462 42.4145 29.594 42.3931 30.3632C42.4145 31.3675 42.1154 32.3718 41.5598 33.2051C40.9615 34.0598 40.1282 34.7222 39.1667 35.1068C38.1196 35.5556 36.8376 35.7906 35.2991 35.7906C34.3162 35.7906 33.3547 35.7051 32.3932 35.5128C31.6453 35.3846 30.8974 35.1496 30.2137 34.8291C30.0641 34.7436 29.9573 34.594 29.9786 34.4231V30.7051C29.9786 30.641 30 30.5556 30.0641 30.5128C30.1282 30.4701 30.1923 30.4914 30.2564 30.5342C31.0897 31.0256 31.9658 31.3675 32.906 31.5812C33.7179 31.7949 34.5726 31.9017 35.4273 31.9017C36.2393 31.9017 36.8162 31.7949 37.2008 31.6026C37.5427 31.453 37.7778 31.0897 37.7778 30.7051C37.7778 30.406 37.6068 30.1282 37.2649 29.8504C36.9231 29.5726 36.2179 29.2521 35.1709 28.8462C34.0812 28.4615 33.0769 27.9487 32.1367 27.3077C31.4744 26.8376 30.9188 26.2179 30.5128 25.4915C30.1709 24.8077 30 24.0598 30.0214 23.312C30.0214 22.3932 30.2778 21.5171 30.7479 20.7265C31.282 19.8718 32.0726 19.188 32.9914 18.7607C33.9957 18.2479 35.2564 18.0128 36.7735 18.0128C37.6496 18.0128 38.547 18.0769 39.4231 18.2051C40.0641 18.2906 40.6837 18.4615 41.2607 18.6966C41.3461 18.7179 41.4316 18.8034 41.4743 18.8889C41.4957 18.9744 41.5171 19.0598 41.5171 19.1453V22.6282C41.5171 22.7137 41.4743 22.7991 41.4102 22.8419C41.2179 22.8846 41.1111 22.8846 41.0256 22.8419Z" fill="#31A8FF"></path>
    </g>
    <defs>
      <clipPath id="clip0_13_510">
        <rect width="51.2821" height="50" fill="white"></rect>
      </clipPath>
    </defs>
  </symbol>
  <symbol fill="none" xmlns="http://www.w3.org/2000/svg" viewBox="0 0 34 50" id="figma">
    <g clip-path="url(#clip0_13_520)">
      <path d="M8.33667 50C12.9367 50 16.67 46.2667 16.67 41.6667V33.3334H8.33667C3.73667 33.3334 0.00333405 37.0667 0.00333405 41.6667C0.00333405 46.2667 3.73667 50 8.33667 50Z" fill="#0ACF83"></path>
      <path d="M0.00333405 24.9999C0.00333405 20.3999 3.73667 16.6666 8.33667 16.6666H16.67V33.3332H8.33667C3.73667 33.3332 0.00333405 29.5999 0.00333405 24.9999Z" fill="#A259FF"></path>
      <path d="M0.00333405 8.33333C0.00333405 3.73333 3.73667 0 8.33667 0H16.67V16.6667H8.33667C3.73667 16.6667 0.00333405 12.9333 0.00333405 8.33333Z" fill="#F24E1E"></path>
      <path d="M16.67 0H25.0034C29.6034 0 33.3367 3.73333 33.3367 8.33333C33.3367 12.9333 29.6034 16.6667 25.0034 16.6667H16.67V0Z" fill="#FF7262"></path>
      <path d="M33.3367 24.9999C33.3367 29.5999 29.6034 33.3332 25.0034 33.3332C20.4033 33.3332 16.67 29.5999 16.67 24.9999C16.67 20.3999 20.4033 16.6666 25.0034 16.6666C29.6034 16.6666 33.3367 20.3999 33.3367 24.9999Z" fill="#1ABCFE"></path>
    </g>
    <defs>
      <clipPath id="clip0_13_520">
        <rect width="33.34" height="50" fill="white"></rect>
      </clipPath>
    </defs>
  </symbol>
  <symbol fill="none" xmlns="http://www.w3.org/2000/svg" viewBox="0 0 45 50" id="css">
    <path d="M44.0875 0L40.071 44.9948L22.0167 50L4.01223 45.0018L0 0H44.0875Z" fill="#264DE4"></path>
    <path d="M36.6324 42.1297L40.0648 3.67957H22.0437V46.1742L36.6324 42.1297Z" fill="#2965F1"></path>
    <path d="M9.19794 20.3701L9.69261 25.8893H22.0437V20.3701H9.19794Z" fill="#EBEBEB"></path>
    <path d="M22.0437 9.19897H22.0247H8.20398L8.7057 14.7183H22.0437V9.19897Z" fill="#EBEBEB"></path>
    <path d="M22.0437 40.4466V34.7043L22.0196 34.7107L15.8727 33.0509L15.4797 28.649H12.4928H9.93924L10.7125 37.3151L22.0183 40.4537L22.0437 40.4466Z" fill="#EBEBEB"></path>
    <path d="M28.821 25.8894L28.1804 33.0475L22.0247 34.709V40.4511L33.3395 37.3152L33.4225 36.3827L34.7195 21.8522L34.8542 20.3702L35.8506 9.19897H22.0247V14.7183H29.8019L29.2997 20.3702H22.0247V25.8894H28.821Z" fill="white"></path>
  </symbol>
  <symbol fill="none" xmlns="http://www.w3.org/2000/svg" viewBox="0 0 57 50" id="react">
    <path d="M56.1456 25.0057C56.1456 21.2863 51.4878 17.7615 44.3465 15.5756C45.9945 8.29709 45.2621 2.50629 42.0348 0.652323C41.2909 0.217441 40.4212 0.0114441 39.4713 0.0114441V2.56352C39.9977 2.56352 40.4212 2.66651 40.7759 2.86107C42.3323 3.75372 43.0076 7.15267 42.4811 11.5244C42.3552 12.6001 42.1492 13.7331 41.8975 14.889C39.6544 14.3397 37.2053 13.9162 34.6304 13.6416C33.0854 11.5244 31.4832 9.60174 29.8695 7.91943C33.6004 4.45182 37.1023 2.55207 39.4827 2.55207V0C36.3356 0 32.2156 2.24308 28.0499 6.13413C23.8842 2.26597 19.7643 0.0457772 16.6171 0.0457772V2.59785C18.986 2.59785 22.4994 4.48615 26.2303 7.93088C24.6281 9.61318 23.0259 11.5244 21.5038 13.6416C18.9174 13.9162 16.4683 14.3397 14.2252 14.9004C13.962 13.756 13.7675 12.6459 13.6301 11.5816C13.0922 7.20989 13.756 3.81094 15.301 2.90684C15.6443 2.70085 16.0906 2.60929 16.6171 2.60929V0.0572213C15.6558 0.0572213 14.786 0.263218 14.0307 0.6981C10.8148 2.55207 10.0938 8.33143 11.7533 15.5871C4.63493 17.7844 0 21.2978 0 25.0057C0 28.7251 4.65782 32.2499 11.799 34.4358C10.1511 41.7143 10.8835 47.5051 14.1108 49.3591C14.8547 49.794 15.7244 50 16.6857 50C19.8329 50 23.9529 47.7569 28.1186 43.8659C32.2843 47.734 36.4042 49.9542 39.5514 49.9542C40.5127 49.9542 41.3825 49.7482 42.1378 49.3133C45.3536 47.4594 46.0746 41.68 44.4152 34.4244C51.5107 32.2385 56.1456 28.7137 56.1456 25.0057ZM41.2451 17.3724C40.8217 18.8487 40.2953 20.3708 39.7002 21.8929C39.2309 20.9773 38.7388 20.0618 38.201 19.1463C37.6745 18.2307 37.1138 17.3381 36.553 16.4683C38.1781 16.7086 39.7459 17.0062 41.2451 17.3724ZM36.0037 29.5605C35.111 31.1055 34.1955 32.5704 33.2456 33.9323C31.5404 34.081 29.8123 34.1611 28.0728 34.1611C26.3447 34.1611 24.6166 34.081 22.9229 33.9437C21.973 32.5818 21.046 31.1284 20.1534 29.5949C19.2836 28.0957 18.4939 26.5736 17.7729 25.0401C18.4825 23.5065 19.2836 21.973 20.1419 20.4738C21.0346 18.9288 21.9501 17.4639 22.9 16.1021C24.6052 15.9533 26.3333 15.8732 28.0728 15.8732C29.8009 15.8732 31.529 15.9533 33.2227 16.0906C34.1726 17.4525 35.0996 18.9059 35.9922 20.4395C36.862 21.9387 37.6516 23.4607 38.3726 24.9943C37.6516 26.5278 36.862 28.0613 36.0037 29.5605ZM39.7002 28.0728C40.3182 29.6063 40.8446 31.1398 41.2795 32.6276C39.7803 32.9938 38.201 33.3028 36.5644 33.5431C37.1252 32.6619 37.686 31.7578 38.2124 30.8309C38.7388 29.9153 39.2309 28.9883 39.7002 28.0728ZM28.0957 40.2838C27.0314 39.1852 25.967 37.9606 24.9142 36.6217C25.9442 36.6674 26.997 36.7018 28.0613 36.7018C29.1371 36.7018 30.2014 36.6789 31.2429 36.6217C30.2129 37.9606 29.1486 39.1852 28.0957 40.2838ZM19.5811 33.5431C17.9561 33.3028 16.3882 33.0053 14.889 32.639C15.3124 31.1627 15.8389 29.6406 16.434 28.1186C16.9032 29.0341 17.3953 29.9496 17.9332 30.8652C18.471 31.7807 19.0204 32.6734 19.5811 33.5431ZM28.0385 9.72763C29.1028 10.8263 30.1671 12.0508 31.22 13.3898C30.19 13.344 29.1371 13.3097 28.0728 13.3097C26.997 13.3097 25.9327 13.3326 24.8913 13.3898C25.9213 12.0508 26.9856 10.8263 28.0385 9.72763ZM19.5697 16.4683C19.0089 17.3495 18.4482 18.2536 17.9217 19.1806C17.3953 20.0961 16.9032 21.0117 16.434 21.9272C15.816 20.3937 15.2895 18.8602 14.8547 17.3724C16.3539 17.0176 17.9332 16.7086 19.5697 16.4683ZM9.21264 30.7965C5.16137 29.0684 2.54063 26.8025 2.54063 25.0057C2.54063 23.209 5.16137 20.9316 9.21264 19.2149C10.1968 18.7915 11.2726 18.4138 12.3827 18.0591C13.035 20.3021 13.8933 22.6368 14.9577 25.0286C13.9048 27.409 13.0579 29.7322 12.417 31.9638C11.284 31.6091 10.2083 31.22 9.21264 30.7965ZM15.3697 47.1504C13.8132 46.2577 13.138 42.8588 13.6645 38.4871C13.7903 37.4113 13.9963 36.2783 14.2481 35.1225C16.4912 35.6718 18.9403 36.0952 21.5152 36.3699C23.0602 38.4871 24.6624 40.4097 26.276 42.092C22.5452 45.5596 19.0433 47.4594 16.6629 47.4594C16.1479 47.4479 15.713 47.3449 15.3697 47.1504ZM42.5155 38.4298C43.0533 42.8016 42.3896 46.2005 40.8446 47.1046C40.5013 47.3106 40.0549 47.4022 39.5285 47.4022C37.1595 47.4022 33.6462 45.5138 29.9153 42.0691C31.5175 40.3868 33.1197 38.4756 34.6418 36.3584C37.2282 36.0838 39.6773 35.6603 41.9204 35.0996C42.1836 36.2554 42.3896 37.3655 42.5155 38.4298ZM46.9215 30.7965C45.9373 31.22 44.8615 31.5976 43.7514 31.9524C43.0991 29.7093 42.2408 27.3747 41.1765 24.9828C42.2293 22.6024 43.0762 20.2792 43.7171 18.0476C44.8501 18.4024 45.9258 18.7915 46.9329 19.2149C50.9842 20.943 53.6049 23.209 53.6049 25.0057C53.5935 26.8025 50.9728 29.0799 46.9215 30.7965Z" fill="#61DAFB"></path>
    <path d="M28.0614 30.2358C30.9498 30.2358 33.2914 27.8942 33.2914 25.0058C33.2914 22.1173 30.9498 19.7758 28.0614 19.7758C25.1729 19.7758 22.8313 22.1173 22.8313 25.0058C22.8313 27.8942 25.1729 30.2358 28.0614 30.2358Z" fill="#61DAFB"></path>
  </symbol>
</svg>