<svg width="0" height="0" class="hidden">
  <symbol xmlns="http://www.w3.org/2000/svg" viewBox="0 0 40 40" id="skills">
    <path d="M6.22001 11.16C6.5882 11.16 6.88668 10.8615 6.88668 10.4933C6.88668 10.1251 6.5882 9.82667 6.22001 9.82667C5.85182 9.82667 5.55334 10.1251 5.55334 10.4933C5.55334 10.8615 5.85182 11.16 6.22001 11.16Z" ></path>
    <path d="M10.6667 11.16C11.0349 11.16 11.3333 10.8615 11.3333 10.4933C11.3333 10.1251 11.0349 9.82667 10.6667 9.82667C10.2985 9.82667 10 10.1251 10 10.4933C10 10.8615 10.2985 11.16 10.6667 11.16Z" ></path>
    <path d="M8.4467 11.16C8.81489 11.16 9.11336 10.8615 9.11336 10.4933C9.11336 10.1251 8.81489 9.82667 8.4467 9.82667C8.07851 9.82667 7.78003 10.1251 7.78003 10.4933C7.78003 10.8615 8.07851 11.16 8.4467 11.16Z" ></path>
    <path d="M13.3334 20.1667L15.3334 18.1667C15.4589 18.0411 15.5294 17.8709 15.5294 17.6933C15.5294 17.5158 15.4589 17.3455 15.3334 17.22C15.2078 17.0945 15.0376 17.0239 14.86 17.0239C14.6825 17.0239 14.5122 17.0945 14.3867 17.22L11.9067 19.7067C11.7825 19.8316 11.7128 20.0005 11.7128 20.1767C11.7128 20.3528 11.7825 20.5218 11.9067 20.6467L14.3867 23.1333C14.4487 23.1958 14.5224 23.2454 14.6036 23.2793C14.6849 23.3131 14.772 23.3305 14.86 23.3305C14.948 23.3305 15.0352 23.3131 15.1164 23.2793C15.1976 23.2454 15.2714 23.1958 15.3334 23.1333C15.4575 23.0084 15.5272 22.8395 15.5272 22.6633C15.5272 22.4872 15.4575 22.3182 15.3334 22.1933L13.3334 20.1667Z" ></path>
    <path d="M22.88 23.12C23.0049 23.2442 23.1739 23.3139 23.35 23.3139C23.5261 23.3139 23.6951 23.2442 23.82 23.12L26.3067 20.6667C26.4309 20.5418 26.5006 20.3728 26.5006 20.1967C26.5006 20.0205 26.4309 19.8516 26.3067 19.7267L23.82 17.24C23.6945 17.1153 23.5246 17.0457 23.3477 17.0463C23.1708 17.0469 23.0013 17.1178 22.8767 17.2433C22.752 17.3689 22.6824 17.5388 22.683 17.7157C22.6836 17.8926 22.7545 18.062 22.88 18.1867L24.88 20.1867L22.88 22.1867C22.7579 22.3113 22.6895 22.4788 22.6895 22.6533C22.6895 22.8278 22.7579 22.9954 22.88 23.12V23.12Z" ></path>
    <path d="M20.6667 17.4333C20.5906 17.3893 20.5065 17.3607 20.4193 17.3492C20.3321 17.3378 20.2436 17.3437 20.1587 17.3666C20.0738 17.3895 19.9942 17.429 19.9247 17.4828C19.8551 17.5366 19.7969 17.6036 19.7533 17.68L17.2933 22C17.2451 22.0759 17.2127 22.1607 17.1981 22.2495C17.1835 22.3382 17.187 22.4289 17.2084 22.5163C17.2298 22.6036 17.2686 22.6857 17.3226 22.7576C17.3765 22.8296 17.4445 22.8898 17.5223 22.9348C17.6002 22.9798 17.6863 23.0086 17.7755 23.0195C17.8648 23.0303 17.9553 23.023 18.0417 22.9979C18.128 22.9729 18.2084 22.9306 18.278 22.8737C18.3476 22.8168 18.405 22.7463 18.4467 22.6667L20.9333 18.3667C20.9798 18.2886 21.0099 18.2017 21.0216 18.1116C21.0334 18.0214 21.0265 17.9298 21.0015 17.8424C20.9766 17.755 20.934 17.6736 20.8764 17.6033C20.8188 17.5329 20.7474 17.4751 20.6667 17.4333V17.4333Z" ></path>
    <path d="M37.24 26.6667C37.2007 26.6664 37.1624 26.6541 37.1302 26.6314C37.098 26.6088 37.0735 26.5769 37.06 26.54C36.7947 25.8422 36.4188 25.1916 35.9466 24.6133C35.9243 24.581 35.9123 24.5426 35.9123 24.5033C35.9123 24.464 35.9243 24.4257 35.9466 24.3933C36.1497 24.0414 36.2048 23.6233 36.0998 23.2308C35.9948 22.8383 35.7383 22.5035 35.3866 22.3L34.8866 22V9.82667C34.8866 9.29623 34.6759 8.78753 34.3009 8.41245C33.9258 8.03738 33.4171 7.82667 32.8866 7.82667H5.33331C4.80288 7.82667 4.29417 8.03738 3.9191 8.41245C3.54403 8.78753 3.33331 9.29623 3.33331 9.82667V26.72C3.33507 27.1314 3.49929 27.5255 3.79021 27.8164C4.08114 28.1074 4.47522 28.2716 4.88665 28.2733H14L13.3333 30.74H12.4466C11.7973 30.7404 11.1671 30.9598 10.6578 31.3626C10.1485 31.7655 9.78994 32.3282 9.63998 32.96H7.99998C7.82317 32.96 7.6536 33.0302 7.52858 33.1553C7.40355 33.2803 7.33331 33.4499 7.33331 33.6267C7.33331 33.8035 7.40355 33.973 7.52858 34.0981C7.6536 34.2231 7.82317 34.2933 7.99998 34.2933H24.98C24.9687 34.4526 24.9845 34.6127 25.0266 34.7667C25.0766 34.9622 25.1656 35.1457 25.2881 35.3061C25.4107 35.4664 25.5644 35.6004 25.74 35.7L27.1466 36.5133C27.3213 36.6136 27.514 36.6785 27.7137 36.7043C27.9134 36.73 28.1163 36.7162 28.3107 36.6636C28.5051 36.611 28.6872 36.5206 28.8466 36.3976C29.0061 36.2746 29.1398 36.1213 29.24 35.9467C29.2616 35.9127 29.2927 35.8857 29.3294 35.8691C29.3661 35.8525 29.4068 35.8471 29.4466 35.8533C30.179 35.98 30.9276 35.98 31.66 35.8533C31.7005 35.8468 31.7421 35.8528 31.7791 35.8707C31.8161 35.8886 31.8466 35.9175 31.8666 35.9533C32.0025 36.186 32.1973 36.3787 32.4314 36.5122C32.6655 36.6456 32.9306 36.715 33.2 36.7133C33.4688 36.7159 33.7334 36.6469 33.9666 36.5133L35.3733 35.7C35.548 35.5992 35.7009 35.4649 35.8233 35.3047C35.9458 35.1445 36.0353 34.9616 36.0866 34.7667C36.1397 34.5729 36.1535 34.3704 36.1272 34.1712C36.1009 33.972 36.0349 33.78 35.9333 33.6067C35.9104 33.5733 35.8981 33.5338 35.8981 33.4933C35.8981 33.4529 35.9104 33.4133 35.9333 33.38C36.404 32.8031 36.7798 32.155 37.0466 31.46C37.0594 31.4225 37.0836 31.3901 37.116 31.3673C37.1483 31.3445 37.1871 31.3326 37.2266 31.3333C37.6328 31.3316 38.0218 31.1695 38.3089 30.8823C38.5961 30.5951 38.7582 30.2061 38.76 29.8V28.1733C38.753 27.7736 38.5903 27.3924 38.3063 27.1109C38.0224 26.8295 37.6398 26.6701 37.24 26.6667V26.6667ZM4.66665 9.82667C4.66665 9.64985 4.73688 9.48029 4.86191 9.35526C4.98693 9.23024 5.1565 9.16 5.33331 9.16H32.8866C33.0635 9.16 33.233 9.23024 33.3581 9.35526C33.4831 9.48029 33.5533 9.64985 33.5533 9.82667V11.8267H4.66665V9.82667ZM4.88665 26.94C4.85776 26.94 4.82915 26.9343 4.80246 26.9233C4.77576 26.9122 4.75151 26.896 4.73108 26.8756C4.71065 26.8551 4.69445 26.8309 4.68339 26.8042C4.67234 26.7775 4.66665 26.7489 4.66665 26.72V13.16H33.5533V21.3333C33.2378 21.2495 32.9038 21.2691 32.6003 21.3891C32.2967 21.509 32.0396 21.7232 31.8666 22V22C31.8459 22.0329 31.8157 22.0587 31.78 22.0742C31.7443 22.0897 31.7048 22.094 31.6666 22.0867C30.9338 21.9666 30.1862 21.9666 29.4533 22.0867C29.4151 22.095 29.3752 22.0911 29.3394 22.0756C29.3035 22.06 29.2734 22.0336 29.2533 22V22C29.1532 21.8252 29.0194 21.672 28.8598 21.5492C28.7002 21.4263 28.5178 21.3363 28.3232 21.2842C28.1286 21.2321 27.9257 21.2191 27.726 21.2459C27.5264 21.2726 27.334 21.3386 27.16 21.44L25.7533 22.2533C25.5782 22.3519 25.4247 22.4847 25.3022 22.6439C25.1796 22.8032 25.0904 22.9855 25.04 23.18C24.9334 23.573 24.9861 23.9923 25.1866 24.3467C25.211 24.3782 25.2242 24.4169 25.2242 24.4567C25.2242 24.4965 25.211 24.5352 25.1866 24.5667C24.7145 25.145 24.3386 25.7955 24.0733 26.4933C24.0598 26.5302 24.0353 26.5621 24.0031 26.5848C23.9709 26.6074 23.9326 26.6197 23.8933 26.62C23.5668 26.6205 23.249 26.7256 22.9866 26.92L4.88665 26.94ZM22.6666 30.74H14.6666L15.3333 28.2733H22.3333V29.8C22.3376 30.1415 22.4548 30.4721 22.6666 30.74V30.74ZM12.4533 32.0733H24.32C24.4724 32.3807 24.6461 32.677 24.84 32.96H11.0466C11.1725 32.6951 11.3708 32.4713 11.6185 32.3144C11.8663 32.1575 12.1534 32.0739 12.4466 32.0733H12.4533ZM37.44 29.8C37.44 29.853 37.4189 29.9039 37.3814 29.9414C37.3439 29.9789 37.293 30 37.24 30C36.9294 30.0008 36.6264 30.0954 36.3706 30.2715C36.1148 30.4476 35.9182 30.6969 35.8066 30.9867C35.5935 31.5487 35.292 32.0731 34.9133 32.54C34.7181 32.7812 34.6002 33.0757 34.5752 33.385C34.5503 33.6943 34.6193 34.0039 34.7733 34.2733C34.784 34.2963 34.7896 34.3213 34.7896 34.3467C34.7896 34.372 34.784 34.397 34.7733 34.42C34.7675 34.4465 34.7562 34.4714 34.7401 34.4933C34.724 34.5151 34.7035 34.5333 34.68 34.5467L33.2933 35.3333C33.2702 35.3462 33.2447 35.3544 33.2183 35.3573C33.192 35.3603 33.1653 35.3579 33.1399 35.3505C33.1145 35.3431 33.0908 35.3306 33.0702 35.3139C33.0496 35.2973 33.0325 35.2767 33.02 35.2533C32.8624 34.9847 32.627 34.7701 32.3449 34.638C32.0628 34.5059 31.7473 34.4624 31.44 34.5133C30.8531 34.6133 30.2535 34.6133 29.6666 34.5133C29.3586 34.463 29.0426 34.5075 28.7605 34.6408C28.4783 34.7742 28.2433 34.9901 28.0866 35.26C28.059 35.3047 28.0153 35.3372 27.9645 35.3508C27.9137 35.3644 27.8597 35.3582 27.8133 35.3333L26.4066 34.52C26.3831 34.5066 26.3626 34.4884 26.3465 34.4666C26.3304 34.4448 26.3191 34.4198 26.3133 34.3933C26.3026 34.3704 26.297 34.3453 26.297 34.32C26.297 34.2947 26.3026 34.2696 26.3133 34.2467C26.4655 33.9767 26.5335 33.6675 26.5086 33.3586C26.4837 33.0497 26.3669 32.7553 26.1733 32.5133C25.7912 32.0477 25.4873 31.5231 25.2733 30.96C25.1615 30.6778 24.9678 30.4356 24.7171 30.2645C24.4663 30.0934 24.1702 30.0013 23.8666 30C23.8136 30 23.7627 29.9789 23.7252 29.9414C23.6877 29.9039 23.6666 29.853 23.6666 29.8V28.1733C23.6657 28.1468 23.6703 28.1204 23.68 28.0957C23.6897 28.071 23.7044 28.0486 23.7232 28.0298C23.7419 28.0111 23.7643 27.9964 23.789 27.9867C23.8137 27.9769 23.8401 27.9724 23.8666 27.9733C24.1763 27.9721 24.4783 27.8772 24.7329 27.7011C24.9876 27.525 25.1829 27.2759 25.2933 26.9867C25.5058 26.4229 25.8099 25.898 26.1933 25.4333C26.3869 25.1913 26.5037 24.897 26.5286 24.5881C26.5536 24.2792 26.4855 23.9699 26.3333 23.7C26.3225 23.6759 26.3168 23.6498 26.3168 23.6233C26.3168 23.5969 26.3225 23.5708 26.3333 23.5467C26.3387 23.5209 26.35 23.4967 26.3661 23.4759C26.3823 23.4551 26.403 23.4383 26.4266 23.4267L27.8333 22.6133C27.866 22.6042 27.9006 22.6042 27.9333 22.6133C27.9667 22.6138 27.9994 22.6225 28.0285 22.6388C28.0576 22.6551 28.0822 22.6784 28.1 22.7067V22.7067C28.2574 22.9759 28.4925 23.1913 28.7744 23.3245C29.0564 23.4578 29.372 23.5027 29.68 23.4533C30.2669 23.3534 30.8664 23.3534 31.4533 23.4533C31.7633 23.4952 32.0787 23.4425 32.3582 23.3021C32.6378 23.1618 32.8684 22.9403 33.02 22.6667V22.6667C33.033 22.6447 33.0503 22.6255 33.0708 22.6102C33.0913 22.5949 33.1146 22.5839 33.1394 22.5777C33.1642 22.5715 33.19 22.5703 33.2153 22.5741C33.2405 22.5779 33.2648 22.5867 33.2866 22.6L34.6933 23.4133C34.717 23.4249 34.7377 23.4418 34.7538 23.4626C34.77 23.4833 34.7812 23.5076 34.7866 23.5333C34.7975 23.5574 34.8031 23.5836 34.8031 23.61C34.8031 23.6364 34.7975 23.6626 34.7866 23.6867C34.6332 23.955 34.5645 24.2635 34.5894 24.5717C34.6144 24.8798 34.732 25.1732 34.9266 25.4133C35.3054 25.8825 35.607 26.4092 35.82 26.9733C35.9251 27.268 36.117 27.5239 36.3706 27.7072C36.6241 27.8904 36.9272 27.9926 37.24 28C37.2665 27.9991 37.2929 28.0036 37.3176 28.0133C37.3423 28.023 37.3647 28.0377 37.3835 28.0565C37.4022 28.0753 37.4169 28.0977 37.4267 28.1224C37.4364 28.1471 37.4409 28.1735 37.44 28.2V29.8Z" ></path>
    <path d="M30.5533 25.96C29.9547 25.96 29.3695 26.1375 28.8718 26.4701C28.3741 26.8027 27.9861 27.2754 27.7571 27.8284C27.528 28.3815 27.468 28.99 27.5848 29.5771C27.7016 30.1643 27.9899 30.7036 28.4132 31.1268C28.8365 31.5501 29.3758 31.8384 29.9629 31.9552C30.55 32.072 31.1585 32.012 31.7116 31.7829C32.2646 31.5539 32.7374 31.1659 33.0699 30.6682C33.4025 30.1705 33.58 29.5853 33.58 28.9867C33.58 28.1839 33.2611 27.4141 32.6935 26.8465C32.1259 26.2789 31.3561 25.96 30.5533 25.96ZM30.5533 30.68C30.2184 30.68 29.891 30.5807 29.6126 30.3946C29.3341 30.2086 29.1171 29.9441 28.9889 29.6347C28.8607 29.3253 28.8272 28.9848 28.8925 28.6563C28.9579 28.3278 29.1192 28.0261 29.356 27.7893C29.5928 27.5525 29.8945 27.3912 30.223 27.3259C30.5515 27.2605 30.8919 27.2941 31.2014 27.4222C31.5108 27.5504 31.7752 27.7674 31.9613 28.0459C32.1474 28.3244 32.2467 28.6518 32.2467 28.9867C32.2432 29.4335 32.0632 29.8607 31.746 30.1754C31.4288 30.4901 31.0001 30.6667 30.5533 30.6667V30.68Z" ></path>
  </symbol>
</svg>