<svg width="0" height="0" class="hidden">
  <symbol fill="none" xmlns="http://www.w3.org/2000/svg" viewBox="0 0 40 40" id="about">
    <path d="M20 19.7C23.8384 19.7 26.95 16.5884 26.95 12.75C26.95 8.91162 23.8384 5.8 20 5.8C16.1616 5.8 13.05 8.91162 13.05 12.75C13.05 16.5884 16.1616 19.7 20 19.7Z" stroke="#F1FAEE" stroke-width="2" stroke-linecap="round" stroke-linejoin="round"></path>
    <path d="M4.34998 34.7167C4.34998 30.7384 5.93033 26.9231 8.74337 24.1101C11.5564 21.297 15.3717 19.7167 19.35 19.7167H20.6C24.5782 19.7167 28.3935 21.297 31.2066 24.1101C34.0196 26.9231 35.6 30.7384 35.6 34.7167V34.7167" stroke="#F1FAEE" stroke-width="2" stroke-linecap="round" stroke-linejoin="round"></path>
  </symbol>
  <symbol fill="none" xmlns="http://www.w3.org/2000/svg" viewBox="0 0 50 50" id="arrow-down">
    <path d="M36.0156 34.375C35.7229 34.084 35.3269 33.9206 34.9141 33.9206C34.5013 33.9206 34.1053 34.084 33.8125 34.375L26.5625 41.5V4.6875C26.5625 4.2731 26.3979 3.87567 26.1049 3.58265C25.8118 3.28962 25.4144 3.125 25 3.125C24.5856 3.125 24.1882 3.28962 23.8952 3.58265C23.6021 3.87567 23.4375 4.2731 23.4375 4.6875V41.4531L16.3594 34.375C16.2141 34.2285 16.0413 34.1123 15.8509 34.033C15.6605 33.9537 15.4563 33.9128 15.25 33.9128C15.0437 33.9128 14.8395 33.9537 14.6491 34.033C14.4587 34.1123 14.2859 34.2285 14.1406 34.375C13.8496 34.6678 13.6863 35.0638 13.6863 35.4766C13.6863 35.8894 13.8496 36.2854 14.1406 36.5781L24.0938 46.5312C24.3573 46.7936 24.7141 46.941 25.086 46.941C25.4578 46.941 25.8146 46.7936 26.0781 46.5312L36.0156 36.5781C36.3067 36.2854 36.47 35.8894 36.47 35.4766C36.47 35.0638 36.3067 34.6678 36.0156 34.375Z" fill="#F1FAEE"></path>
  </symbol>
  <symbol fill="none" xmlns="http://www.w3.org/2000/svg" viewBox="0 0 26 26" id="call">
    <path d="M18.7956 25.129C17.8179 25.1217 16.8445 24.999 15.8956 24.7634C12.6187 23.9727 9.24437 21.9671 6.39562 19.1159C3.54687 16.2646 1.53874 12.8896 0.74812 9.61586C-0.0843798 6.17211 0.50937 3.22585 2.41812 1.3171L2.96312 0.772104C3.45759 0.278619 4.12765 0.00146484 4.82624 0.00146484C5.52484 0.00146484 6.19489 0.278619 6.68937 0.772104L9.82124 3.90335C10.315 4.39767 10.5924 5.06779 10.5924 5.76648C10.5924 6.46517 10.315 7.13529 9.82124 7.62961L7.97124 9.47898C8.85812 11.0352 10.0644 12.5927 11.49 14.0184C12.9156 15.444 14.4744 16.6509 16.03 17.5377L17.8794 15.6877C18.124 15.443 18.4145 15.2489 18.7341 15.1164C19.0538 14.984 19.3965 14.9158 19.7425 14.9158C20.0885 14.9158 20.4312 14.984 20.7508 15.1164C21.0705 15.2489 21.361 15.443 21.6056 15.6877L24.7369 18.819C25.2308 19.3131 25.5082 19.9832 25.5082 20.6818C25.5082 21.3804 25.2308 22.0505 24.7369 22.5446L24.1912 23.0896C22.8456 24.4377 20.9831 25.129 18.7956 25.129ZM4.82624 1.87523C4.72645 1.87473 4.62757 1.89416 4.53538 1.93236C4.44319 1.97057 4.35955 2.02679 4.28937 2.09773L3.74374 2.64273C2.31437 4.0721 1.89687 6.39273 2.56812 9.17336C3.27874 12.119 5.10812 15.1796 7.71874 17.7896C10.3294 20.3996 13.3894 22.2271 16.3356 22.9402C19.1169 23.6115 21.4362 23.194 22.8656 21.7646L23.4106 21.2196C23.553 21.0771 23.633 20.8839 23.633 20.6824C23.633 20.481 23.553 20.2877 23.4106 20.1452L20.28 17.014C20.1375 16.8716 19.9443 16.7916 19.7428 16.7916C19.5413 16.7916 19.3481 16.8716 19.2056 17.014L16.8612 19.3584C16.7206 19.4991 16.5388 19.5914 16.3421 19.622C16.1455 19.6526 15.9442 19.6198 15.7675 19.5284C13.8456 18.5346 11.9081 17.0877 10.1644 15.344C8.42062 13.6002 6.97687 11.664 5.98062 9.74211C5.88913 9.56542 5.85623 9.3642 5.88668 9.16757C5.91713 8.97094 6.00935 8.7891 6.14999 8.64836L8.49499 6.30398C8.63739 6.16147 8.71738 5.96825 8.71738 5.76679C8.71738 5.56533 8.63739 5.37212 8.49499 5.22961L5.36374 2.09773C5.29334 2.02691 5.20957 1.97078 5.1173 1.93258C5.02503 1.89439 4.9261 1.87489 4.82624 1.87523V1.87523Z" fill="#1ABCFE"></path>
    <path d="M19.7969 13.8585C19.5482 13.8585 19.3098 13.7598 19.134 13.5839C18.9581 13.4081 18.8594 13.1697 18.8594 12.921C18.8576 11.2764 18.2034 9.69957 17.0406 8.53655C15.8777 7.37353 14.3009 6.71927 12.6562 6.71729C12.4076 6.71729 12.1692 6.61851 11.9933 6.4427C11.8175 6.26688 11.7188 6.02843 11.7188 5.77979C11.7188 5.53114 11.8175 5.29269 11.9933 5.11687C12.1692 4.94106 12.4076 4.84229 12.6562 4.84229C17.1106 4.84229 20.7344 8.46728 20.7344 12.921C20.7344 13.1697 20.6356 13.4081 20.4598 13.5839C20.284 13.7598 20.0455 13.8585 19.7969 13.8585Z" fill="#1ABCFE"></path>
    <path d="M23.7594 13.8581C23.5107 13.8581 23.2723 13.7594 23.0965 13.5835C22.9206 13.4077 22.8219 13.1693 22.8219 12.9206C22.8219 7.31502 18.2594 2.75439 12.6562 2.75439C12.4076 2.75439 12.1692 2.65562 11.9933 2.47981C11.8175 2.30399 11.7188 2.06553 11.7188 1.81689C11.7188 1.56825 11.8175 1.3298 11.9933 1.15398C12.1692 0.978167 12.4076 0.879395 12.6562 0.879395C19.2956 0.879395 24.6969 6.28127 24.6969 12.9206C24.6969 13.1693 24.5981 13.4077 24.4223 13.5835C24.2465 13.7594 24.008 13.8581 23.7594 13.8581Z" fill="#1ABCFE"></path>
  </symbol>
  <symbol fill="none" xmlns="http://www.w3.org/2000/svg" viewBox="0 0 40 40" id="contact">
    <path d="M37.6878 29.5943C37.0673 28.5817 36.1043 27.4023 34.973 26.2725C34.1542 25.4537 31.3432 22.784 29.5358 22.784C28.9559 22.784 28.5878 23.0318 28.3819 23.2377L25.9751 25.643C25.9345 25.6836 25.8053 25.7302 25.5724 25.7302C24.2368 25.7302 21.4048 24.2518 18.5757 21.4243C14.8032 17.6502 13.8958 14.4862 14.357 14.0249L16.7608 11.6196C16.9682 11.4123 17.2161 11.0442 17.2161 10.4657C17.2176 8.65685 14.5463 5.84585 13.7275 5.02704C12.9102 4.20823 10.1007 1.53846 8.29029 1.53846C7.71186 1.53846 7.34377 1.78485 7.13644 1.99219L2.32424 6.80439C0.902968 8.22416 1.4213 11.0021 3.86571 15.0601C5.9871 18.5817 9.34497 22.7103 13.3173 26.6827C20.3636 33.729 27.4985 38.463 31.0712 38.4615C31.9607 38.4615 32.6743 38.1971 33.1956 37.6758L38.0078 32.8636C39.049 31.8224 38.0244 30.1457 37.6878 29.5943ZM31.564 36.0442C31.5099 36.0968 31.3537 36.1538 31.0712 36.1538C28.6388 36.1538 22.162 32.2626 14.9489 25.0511C11.1043 21.2064 7.87112 17.2356 5.84287 13.8687C3.55772 10.0766 3.77256 8.61929 3.95585 8.436L8.4856 3.90625C9.07605 4.13461 10.4447 5.00601 12.0959 6.65865C13.747 8.3113 14.6199 9.67848 14.8483 10.2689L12.7254 12.3933C10.5123 14.6064 13.3609 19.4712 16.9441 23.0559C20.0181 26.1298 23.3248 28.0379 25.5724 28.0379C26.6226 28.0379 27.2581 27.6232 27.6067 27.2746L29.7311 25.1517C30.3215 25.3801 31.6887 26.253 33.3414 27.9041C34.9925 29.5553 35.8654 30.924 36.0938 31.5144L31.564 36.0442Z" fill="#F1FAEE"></path>
  </symbol>
  <symbol fill="none" xmlns="http://www.w3.org/2000/svg" viewBox="0 0 31 30" id="github">
    <path fill-rule="evenodd" clip-rule="evenodd" d="M15.3794 0C6.88228 0 0 6.88228 0 15.3794C0 22.1848 4.40236 27.9328 10.5157 29.9706C11.2846 30.1052 11.573 29.6438 11.573 29.2401C11.573 28.8748 11.5538 27.6637 11.5538 26.3757C7.6897 27.087 6.69004 25.4337 6.38245 24.5686C6.20944 24.1264 5.45969 22.7615 4.80606 22.3963C4.26779 22.1079 3.49882 21.3966 4.78684 21.3774C5.99797 21.3582 6.86306 22.4924 7.15142 22.9538C8.53557 25.2799 10.7464 24.6263 11.6307 24.2226C11.7652 23.2229 12.169 22.5501 12.6111 22.1656C9.1892 21.7811 5.61348 20.4546 5.61348 14.572C5.61348 12.8995 6.20944 11.5153 7.18987 10.4388C7.03608 10.0543 6.4978 8.4779 7.34367 6.36323C7.34367 6.36323 8.63169 5.95952 11.573 7.93962C12.8034 7.59358 14.1106 7.42056 15.4179 7.42056C16.7251 7.42056 18.0324 7.59358 19.2627 7.93962C22.204 5.9403 23.492 6.36323 23.492 6.36323C24.3379 8.4779 23.7996 10.0543 23.6458 10.4388C24.6263 11.5153 25.2222 12.8803 25.2222 14.572C25.2222 20.4738 21.6273 21.7811 18.2054 22.1656C18.7629 22.6462 19.2435 23.5689 19.2435 25.0108C19.2435 27.0678 19.2243 28.721 19.2243 29.2401C19.2243 29.6438 19.5126 30.1244 20.2816 29.9706C23.3346 28.9398 25.9876 26.9776 27.8671 24.3602C29.7465 21.7427 30.7579 18.6018 30.7588 15.3794C30.7588 6.88228 23.8765 0 15.3794 0Z" fill="#457B9D"></path>
  </symbol>
  <symbol fill="none" xmlns="http://www.w3.org/2000/svg" viewBox="0 0 40 40" id="home">
    <path d="M35.2433 14.2933L22.66 4.06833C21.1183 2.81666 18.8817 2.81666 17.34 4.06833L4.75834 14.2917C4.31667 14.65 4.065 15.18 4.065 15.7467V34.985C4.065 36.0183 4.90667 36.8683 5.94 36.8683H14.3767C15.41 36.8683 16.2517 36.0183 16.2517 34.985V22.8083H23.75V34.985C23.75 36.0183 24.5917 36.8683 25.625 36.8683H34.0617C35.095 36.8683 35.9367 36.0183 35.9367 34.985V15.7467C35.935 15.18 35.6833 14.65 35.2433 14.2933ZM34.06 34.995H25.6233V22.8C25.6233 21.7667 24.7817 20.935 23.7483 20.935H16.25C15.2167 20.935 14.375 21.7667 14.375 22.8V34.995H5.94V15.7467L18.5233 5.52333C19.3783 4.82666 20.6233 4.82833 21.4783 5.52333L34.0617 15.7467V34.995H34.06Z" fill="#F1FAEE"></path>
  </symbol>
  <symbol fill="none" xmlns="http://www.w3.org/2000/svg" viewBox="0 0 30 30" id="instagram">
    <path fill-rule="evenodd" clip-rule="evenodd" d="M9.33125 1.3325C10.7975 1.265 11.265 1.25 15 1.25C18.735 1.25 19.2025 1.26625 20.6675 1.3325C22.1325 1.39875 23.1325 1.6325 24.0075 1.97125C24.9237 2.3175 25.755 2.85875 26.4425 3.55875C27.1425 4.245 27.6825 5.075 28.0275 5.9925C28.3675 6.8675 28.6 7.8675 28.6675 9.33C28.735 10.7987 28.75 11.2662 28.75 15C28.75 18.735 28.7337 19.2025 28.6675 20.6688C28.6012 22.1313 28.3675 23.1313 28.0275 24.0063C27.6825 24.9239 27.1416 25.7552 26.4425 26.4425C25.755 27.1425 24.9237 27.6825 24.0075 28.0275C23.1325 28.3675 22.1325 28.6 20.67 28.6675C19.2025 28.735 18.735 28.75 15 28.75C11.265 28.75 10.7975 28.7337 9.33125 28.6675C7.86875 28.6012 6.86875 28.3675 5.99375 28.0275C5.07615 27.6825 4.24478 27.1416 3.5575 26.4425C2.85797 25.7558 2.31664 24.9249 1.97125 24.0075C1.6325 23.1325 1.4 22.1325 1.3325 20.67C1.265 19.2013 1.25 18.7337 1.25 15C1.25 11.265 1.26625 10.7975 1.3325 9.3325C1.39875 7.8675 1.6325 6.8675 1.97125 5.9925C2.31715 5.0751 2.8589 4.24414 3.55875 3.5575C4.24505 2.85813 5.07559 2.3168 5.9925 1.97125C6.8675 1.6325 7.8675 1.4 9.33 1.3325H9.33125ZM20.5562 3.8075C19.1062 3.74125 18.6712 3.7275 15 3.7275C11.3287 3.7275 10.8938 3.74125 9.44375 3.8075C8.1025 3.86875 7.375 4.0925 6.89 4.28125C6.24875 4.53125 5.79 4.8275 5.30875 5.30875C4.85256 5.75256 4.50148 6.29285 4.28125 6.89C4.0925 7.375 3.86875 8.1025 3.8075 9.44375C3.74125 10.8938 3.7275 11.3287 3.7275 15C3.7275 18.6712 3.74125 19.1062 3.8075 20.5562C3.86875 21.8975 4.0925 22.625 4.28125 23.11C4.50125 23.7063 4.8525 24.2475 5.30875 24.6912C5.7525 25.1475 6.29375 25.4988 6.89 25.7188C7.375 25.9075 8.1025 26.1313 9.44375 26.1925C10.8938 26.2588 11.3275 26.2725 15 26.2725C18.6725 26.2725 19.1062 26.2588 20.5562 26.1925C21.8975 26.1313 22.625 25.9075 23.11 25.7188C23.7513 25.4688 24.21 25.1725 24.6912 24.6912C25.1475 24.2475 25.4988 23.7063 25.7188 23.11C25.9075 22.625 26.1313 21.8975 26.1925 20.5562C26.2588 19.1062 26.2725 18.6712 26.2725 15C26.2725 11.3287 26.2588 10.8938 26.1925 9.44375C26.1313 8.1025 25.9075 7.375 25.7188 6.89C25.4688 6.24875 25.1725 5.79 24.6912 5.30875C24.2474 4.85259 23.7071 4.50151 23.11 4.28125C22.625 4.0925 21.8975 3.86875 20.5562 3.8075ZM13.2438 19.2388C14.2246 19.647 15.3167 19.7021 16.3337 19.3947C17.3506 19.0872 18.2292 18.4361 18.8195 17.5528C19.4098 16.6695 19.6751 15.6086 19.5701 14.5514C19.465 13.4942 18.9963 12.5062 18.2437 11.7562C17.764 11.2768 17.184 10.9098 16.5454 10.6814C15.9068 10.4531 15.2255 10.3692 14.5506 10.4358C13.8757 10.5023 13.2239 10.7177 12.6423 11.0664C12.0606 11.4151 11.5634 11.8884 11.1866 12.4523C10.8098 13.0162 10.5627 13.6566 10.4631 14.3275C10.3636 14.9983 10.4139 15.6829 10.6107 16.3319C10.8074 16.9809 11.1456 17.5783 11.6009 18.0809C12.0562 18.5835 12.6173 18.979 13.2438 19.2388ZM10.0025 10.0025C10.6588 9.34622 11.4379 8.82563 12.2954 8.47045C13.1528 8.11527 14.0719 7.93247 15 7.93247C15.9281 7.93247 16.8472 8.11527 17.7046 8.47045C18.5621 8.82563 19.3412 9.34622 19.9975 10.0025C20.6538 10.6588 21.1744 11.4379 21.5295 12.2954C21.8847 13.1528 22.0675 14.0719 22.0675 15C22.0675 15.9281 21.8847 16.8472 21.5295 17.7046C21.1744 18.5621 20.6538 19.3412 19.9975 19.9975C18.6721 21.3229 16.8744 22.0675 15 22.0675C13.1256 22.0675 11.3279 21.3229 10.0025 19.9975C8.67708 18.6721 7.93247 16.8744 7.93247 15C7.93247 13.1256 8.67708 11.3279 10.0025 10.0025ZM23.635 8.985C23.7976 8.83159 23.9278 8.6471 24.0179 8.44247C24.1079 8.23783 24.156 8.01721 24.1593 7.79366C24.1625 7.57011 24.1209 7.34818 24.0369 7.14101C23.9528 6.93384 23.828 6.74564 23.67 6.58755C23.5119 6.42946 23.3237 6.3047 23.1165 6.22065C22.9093 6.1366 22.6874 6.09497 22.4638 6.09823C22.2403 6.10149 22.0197 6.14957 21.815 6.23962C21.6104 6.32967 21.4259 6.45987 21.2725 6.6225C20.9741 6.93879 20.8108 7.3589 20.8171 7.79366C20.8235 8.22842 20.999 8.6436 21.3064 8.95105C21.6139 9.25851 22.0291 9.43404 22.4638 9.44037C22.8986 9.44671 23.3187 9.28336 23.635 8.985Z" fill="#457B9D"></path>
  </symbol>
  <symbol fill="none" xmlns="http://www.w3.org/2000/svg" viewBox="0 0 60 1" id="line">
    <line y1="0.5" x2="60" y2="0.5" stroke="#1D3557"></line>
  </symbol>
  <symbol fill="none" xmlns="http://www.w3.org/2000/svg" viewBox="0 0 30 30" id="linkedin">
    <path fill-rule="evenodd" clip-rule="evenodd" d="M11.1435 10.4535H16.7145V13.2285C17.517 11.6325 19.575 10.1985 22.6665 10.1985C28.593 10.1985 30 13.3755 30 19.2045V30H24V20.532C24 17.2125 23.1975 15.3405 21.1545 15.3405C18.321 15.3405 17.1435 17.358 17.1435 20.5305V30H11.1435V10.4535ZM0.855 29.745H6.855V10.1985H0.855V29.745ZM7.7145 3.825C7.71472 4.32791 7.61498 4.82585 7.42108 5.28988C7.22718 5.75391 6.94298 6.17477 6.585 6.528C5.8596 7.24894 4.87772 7.65248 3.855 7.65C2.83408 7.64931 1.85447 7.2468 1.128 6.5295C0.771317 6.17507 0.488079 5.75374 0.294515 5.28965C0.100952 4.82556 0.000868698 4.32784 0 3.825C0 2.8095 0.405 1.8375 1.1295 1.1205C1.85533 0.402238 2.83536 -0.000448816 3.8565 3.75397e-07C4.8795 3.75397e-07 5.8605 0.4035 6.585 1.1205C7.308 1.8375 7.7145 2.8095 7.7145 3.825Z" fill="#457B9D"></path>
  </symbol>
  <symbol fill="none" xmlns="http://www.w3.org/2000/svg" viewBox="0 0 50 33" id="logo">
    <path d="M14.3485 25.5084L21.9434 0H29.3391L18.1127 32.2398H13.2413L14.3485 25.5084ZM7.35138 0L14.9242 25.5084L16.0756 32.2398H11.1599L0 0H7.35138Z" fill="#F1FAEE"></path>
    <path d="M29.2966 0L36.028 14.7028L42.7593 0H50L39.3936 20.5041V32.2398H32.6623V20.5041L22.0338 0H29.2966Z" fill="#F1FAEE"></path>
  </symbol>
  <symbol fill="none" xmlns="http://www.w3.org/2000/svg" viewBox="0 0 28 21" id="mail">
    <path d="M27 0.999775H1H0.92C0.85032 0.990309 0.77968 0.990309 0.71 0.999775L0.54 1.06978C0.485598 1.09598 0.435112 1.12964 0.39 1.16978C0.333109 1.20846 0.282515 1.25568 0.24 1.30978L0.18 1.36978C0.176235 1.39966 0.176235 1.42989 0.18 1.45978C0.147336 1.52041 0.120547 1.58404 0.0999999 1.64978C0.0580371 1.72939 0.0245213 1.81318 0 1.89978C0 1.89978 0 1.99978 0 1.99978V19.9998C0 20.265 0.105357 20.5193 0.292893 20.7069C0.48043 20.8944 0.734784 20.9998 1 20.9998H27C27.2652 20.9998 27.5196 20.8944 27.7071 20.7069C27.8946 20.5193 28 20.265 28 19.9998V1.99978C28 1.73456 27.8946 1.48021 27.7071 1.29267C27.5196 1.10513 27.2652 0.999775 27 0.999775ZM14 9.80978L4.2 2.99978H25.09L14 9.80978ZM2 18.9998V3.90978L13.43 11.8198C13.4879 11.8537 13.5481 11.8838 13.61 11.9098H13.69C13.7883 11.955 13.8928 11.9853 14 11.9998C14.1422 11.996 14.282 11.9619 14.41 11.8998H14.48L26 4.78978V18.9998H2Z" fill="#0ACF83"></path>
  </symbol>
  <symbol id="menu" version="1.1" xml:space="preserve" xmlns="http://www.w3.org/2000/svg" xmlns:xlink="http://www.w3.org/1999/xlink" viewBox="0 0 32 32">
    <path d="M4,10h24c1.104,0,2-0.896,2-2s-0.896-2-2-2H4C2.896,6,2,6.896,2,8S2.896,10,4,10z M28,14H4c-1.104,0-2,0.896-2,2  s0.896,2,2,2h24c1.104,0,2-0.896,2-2S29.104,14,28,14z M28,22H4c-1.104,0-2,0.896-2,2s0.896,2,2,2h24c1.104,0,2-0.896,2-2  S29.104,22,28,22z"></path>
  </symbol>
  <symbol fill="none" xmlns="http://www.w3.org/2000/svg" viewBox="0 0 40 40" id="skills">
    <path d="M6.22001 11.16C6.5882 11.16 6.88668 10.8615 6.88668 10.4933C6.88668 10.1251 6.5882 9.82667 6.22001 9.82667C5.85182 9.82667 5.55334 10.1251 5.55334 10.4933C5.55334 10.8615 5.85182 11.16 6.22001 11.16Z" fill="#F1FAEE"></path>
    <path d="M10.6667 11.16C11.0349 11.16 11.3333 10.8615 11.3333 10.4933C11.3333 10.1251 11.0349 9.82667 10.6667 9.82667C10.2985 9.82667 10 10.1251 10 10.4933C10 10.8615 10.2985 11.16 10.6667 11.16Z" fill="#F1FAEE"></path>
    <path d="M8.4467 11.16C8.81489 11.16 9.11336 10.8615 9.11336 10.4933C9.11336 10.1251 8.81489 9.82667 8.4467 9.82667C8.07851 9.82667 7.78003 10.1251 7.78003 10.4933C7.78003 10.8615 8.07851 11.16 8.4467 11.16Z" fill="#F1FAEE"></path>
    <path d="M13.3334 20.1667L15.3334 18.1667C15.4589 18.0411 15.5294 17.8709 15.5294 17.6933C15.5294 17.5158 15.4589 17.3455 15.3334 17.22C15.2078 17.0945 15.0376 17.0239 14.86 17.0239C14.6825 17.0239 14.5122 17.0945 14.3867 17.22L11.9067 19.7067C11.7825 19.8316 11.7128 20.0005 11.7128 20.1767C11.7128 20.3528 11.7825 20.5218 11.9067 20.6467L14.3867 23.1333C14.4487 23.1958 14.5224 23.2454 14.6036 23.2793C14.6849 23.3131 14.772 23.3305 14.86 23.3305C14.948 23.3305 15.0352 23.3131 15.1164 23.2793C15.1976 23.2454 15.2714 23.1958 15.3334 23.1333C15.4575 23.0084 15.5272 22.8395 15.5272 22.6633C15.5272 22.4872 15.4575 22.3182 15.3334 22.1933L13.3334 20.1667Z" fill="#F1FAEE"></path>
    <path d="M22.88 23.12C23.0049 23.2442 23.1739 23.3139 23.35 23.3139C23.5261 23.3139 23.6951 23.2442 23.82 23.12L26.3067 20.6667C26.4309 20.5418 26.5006 20.3728 26.5006 20.1967C26.5006 20.0205 26.4309 19.8516 26.3067 19.7267L23.82 17.24C23.6945 17.1153 23.5246 17.0457 23.3477 17.0463C23.1708 17.0469 23.0013 17.1178 22.8767 17.2433C22.752 17.3689 22.6824 17.5388 22.683 17.7157C22.6836 17.8926 22.7545 18.062 22.88 18.1867L24.88 20.1867L22.88 22.1867C22.7579 22.3113 22.6895 22.4788 22.6895 22.6533C22.6895 22.8278 22.7579 22.9954 22.88 23.12Z" fill="#F1FAEE"></path>
    <path d="M20.6667 17.4333C20.5906 17.3893 20.5065 17.3607 20.4193 17.3492C20.3321 17.3378 20.2436 17.3437 20.1587 17.3666C20.0738 17.3895 19.9942 17.429 19.9247 17.4828C19.8551 17.5366 19.7969 17.6036 19.7533 17.68L17.2933 22C17.2451 22.0759 17.2127 22.1607 17.1981 22.2495C17.1835 22.3382 17.187 22.4289 17.2084 22.5163C17.2298 22.6036 17.2686 22.6857 17.3226 22.7576C17.3765 22.8296 17.4445 22.8898 17.5223 22.9348C17.6002 22.9798 17.6863 23.0086 17.7755 23.0195C17.8648 23.0303 17.9553 23.023 18.0417 22.9979C18.128 22.9729 18.2084 22.9306 18.278 22.8737C18.3476 22.8168 18.405 22.7463 18.4467 22.6667L20.9333 18.3667C20.9798 18.2886 21.0099 18.2017 21.0216 18.1116C21.0334 18.0214 21.0265 17.9298 21.0015 17.8424C20.9766 17.755 20.934 17.6736 20.8764 17.6033C20.8188 17.5329 20.7474 17.4751 20.6667 17.4333Z" fill="#F1FAEE"></path>
    <path d="M37.24 26.6667C37.2007 26.6664 37.1624 26.6541 37.1302 26.6314C37.098 26.6088 37.0735 26.5769 37.06 26.54C36.7947 25.8422 36.4188 25.1916 35.9466 24.6133C35.9243 24.581 35.9123 24.5426 35.9123 24.5033C35.9123 24.464 35.9243 24.4257 35.9466 24.3933C36.1497 24.0414 36.2048 23.6233 36.0998 23.2308C35.9948 22.8383 35.7383 22.5035 35.3867 22.3L34.8866 22V9.82667C34.8866 9.29623 34.6759 8.78753 34.3009 8.41245C33.9258 8.03738 33.4171 7.82667 32.8866 7.82667H5.33331C4.80288 7.82667 4.29417 8.03738 3.9191 8.41245C3.54403 8.78753 3.33331 9.29623 3.33331 9.82667V26.72C3.33507 27.1314 3.49929 27.5255 3.79021 27.8164C4.08114 28.1074 4.47522 28.2716 4.88665 28.2733H14L13.3333 30.74H12.4466C11.7973 30.7404 11.1671 30.9598 10.6578 31.3626C10.1485 31.7655 9.78994 32.3282 9.63998 32.96H7.99998C7.82317 32.96 7.6536 33.0302 7.52858 33.1553C7.40355 33.2803 7.33331 33.4499 7.33331 33.6267C7.33331 33.8035 7.40355 33.973 7.52858 34.0981C7.6536 34.2231 7.82317 34.2933 7.99998 34.2933H24.98C24.9687 34.4526 24.9845 34.6127 25.0266 34.7667C25.0766 34.9622 25.1656 35.1457 25.2881 35.3061C25.4107 35.4664 25.5644 35.6004 25.74 35.7L27.1466 36.5133C27.3213 36.6136 27.514 36.6785 27.7137 36.7043C27.9134 36.73 28.1163 36.7162 28.3107 36.6636C28.5051 36.611 28.6872 36.5206 28.8466 36.3976C29.0061 36.2746 29.1398 36.1213 29.24 35.9467C29.2616 35.9127 29.2927 35.8857 29.3294 35.8691C29.3661 35.8525 29.4069 35.8471 29.4466 35.8533C30.179 35.98 30.9276 35.98 31.66 35.8533C31.7005 35.8468 31.7421 35.8528 31.7791 35.8707C31.8161 35.8886 31.8466 35.9175 31.8666 35.9533C32.0025 36.186 32.1973 36.3787 32.4314 36.5121C32.6655 36.6456 32.9306 36.715 33.2 36.7133C33.4688 36.7159 33.7334 36.6469 33.9666 36.5133L35.3733 35.7C35.548 35.5992 35.7009 35.4649 35.8233 35.3047C35.9458 35.1445 36.0353 34.9616 36.0866 34.7667C36.1397 34.5729 36.1535 34.3704 36.1272 34.1712C36.1009 33.972 36.0349 33.78 35.9333 33.6067C35.9104 33.5733 35.8981 33.5338 35.8981 33.4933C35.8981 33.4529 35.9104 33.4133 35.9333 33.38C36.404 32.8031 36.7798 32.155 37.0466 31.46C37.0594 31.4225 37.0836 31.3901 37.116 31.3673C37.1483 31.3445 37.1871 31.3326 37.2266 31.3333C37.6328 31.3316 38.0218 31.1695 38.3089 30.8823C38.5961 30.5951 38.7582 30.2061 38.76 29.8V28.1733C38.753 27.7736 38.5903 27.3924 38.3063 27.1109C38.0224 26.8295 37.6398 26.6701 37.24 26.6667ZM4.66665 9.82667C4.66665 9.64985 4.73688 9.48029 4.86191 9.35526C4.98693 9.23024 5.1565 9.16 5.33331 9.16H32.8866C33.0635 9.16 33.233 9.23024 33.3581 9.35526C33.4831 9.48029 33.5533 9.64985 33.5533 9.82667V11.8267H4.66665V9.82667ZM4.88665 26.94C4.85776 26.94 4.82915 26.9343 4.80246 26.9233C4.77576 26.9122 4.75151 26.896 4.73108 26.8756C4.71065 26.8551 4.69445 26.8309 4.68339 26.8042C4.67234 26.7775 4.66665 26.7489 4.66665 26.72V13.16H33.5533V21.3333C33.2378 21.2495 32.9038 21.2691 32.6003 21.3891C32.2967 21.509 32.0396 21.7232 31.8666 22C31.8459 22.0329 31.8157 22.0587 31.78 22.0742C31.7443 22.0897 31.7048 22.094 31.6666 22.0867C30.9338 21.9666 30.1862 21.9666 29.4533 22.0867C29.4151 22.095 29.3752 22.0911 29.3394 22.0756C29.3035 22.06 29.2734 22.0336 29.2533 22C29.1532 21.8252 29.0194 21.672 28.8598 21.5492C28.7002 21.4263 28.5178 21.3363 28.3232 21.2842C28.1286 21.2321 27.9257 21.2191 27.726 21.2459C27.5264 21.2726 27.334 21.3386 27.16 21.44L25.7533 22.2533C25.5782 22.3519 25.4247 22.4847 25.3022 22.6439C25.1796 22.8032 25.0904 22.9855 25.04 23.18C24.9334 23.573 24.9861 23.9923 25.1866 24.3467C25.211 24.3782 25.2242 24.4169 25.2242 24.4567C25.2242 24.4965 25.211 24.5352 25.1866 24.5667C24.7145 25.145 24.3386 25.7955 24.0733 26.4933C24.0598 26.5302 24.0353 26.5621 24.0031 26.5848C23.9709 26.6074 23.9326 26.6197 23.8933 26.62C23.5668 26.6205 23.249 26.7256 22.9866 26.92L4.88665 26.94ZM22.6666 30.74H14.6666L15.3333 28.2733H22.3333V29.8C22.3376 30.1415 22.4548 30.4721 22.6666 30.74ZM12.4533 32.0733H24.32C24.4724 32.3807 24.6461 32.677 24.84 32.96H11.0466C11.1725 32.6951 11.3708 32.4713 11.6185 32.3144C11.8663 32.1575 12.1534 32.0739 12.4466 32.0733H12.4533ZM37.44 29.8C37.44 29.853 37.4189 29.9039 37.3814 29.9414C37.3439 29.9789 37.293 30 37.24 30C36.9294 30.0008 36.6264 30.0954 36.3706 30.2715C36.1148 30.4476 35.9182 30.6969 35.8066 30.9867C35.5935 31.5487 35.292 32.0731 34.9133 32.54C34.7181 32.7812 34.6002 33.0757 34.5752 33.385C34.5503 33.6943 34.6193 34.0039 34.7733 34.2733C34.784 34.2963 34.7896 34.3213 34.7896 34.3467C34.7896 34.372 34.784 34.397 34.7733 34.42C34.7675 34.4465 34.7562 34.4714 34.7401 34.4933C34.724 34.5151 34.7035 34.5333 34.68 34.5467L33.2933 35.3333C33.2702 35.3462 33.2447 35.3544 33.2183 35.3573C33.192 35.3603 33.1653 35.3579 33.1399 35.3505C33.1145 35.3431 33.0908 35.3306 33.0702 35.3139C33.0496 35.2973 33.0325 35.2767 33.02 35.2533C32.8624 34.9847 32.627 34.7701 32.3449 34.638C32.0628 34.5059 31.7473 34.4624 31.44 34.5133C30.8531 34.6133 30.2535 34.6133 29.6666 34.5133C29.3586 34.463 29.0426 34.5075 28.7605 34.6408C28.4783 34.7742 28.2433 34.9901 28.0866 35.26C28.059 35.3047 28.0153 35.3372 27.9645 35.3508C27.9137 35.3644 27.8597 35.3582 27.8133 35.3333L26.4066 34.52C26.3831 34.5066 26.3626 34.4884 26.3465 34.4666C26.3304 34.4448 26.3191 34.4198 26.3133 34.3933C26.3026 34.3704 26.297 34.3453 26.297 34.32C26.297 34.2947 26.3026 34.2696 26.3133 34.2467C26.4655 33.9767 26.5336 33.6675 26.5086 33.3586C26.4837 33.0497 26.3669 32.7553 26.1733 32.5133C25.7912 32.0477 25.4873 31.5231 25.2733 30.96C25.1615 30.6778 24.9678 30.4356 24.7171 30.2645C24.4663 30.0934 24.1702 30.0013 23.8666 30C23.8136 30 23.7627 29.9789 23.7252 29.9414C23.6877 29.9039 23.6666 29.853 23.6666 29.8V28.1733C23.6657 28.1468 23.6703 28.1204 23.68 28.0957C23.6897 28.071 23.7044 28.0486 23.7232 28.0298C23.7419 28.0111 23.7643 27.9964 23.789 27.9867C23.8137 27.9769 23.8401 27.9724 23.8666 27.9733C24.1763 27.9721 24.4783 27.8772 24.7329 27.7011C24.9876 27.525 25.1829 27.2759 25.2933 26.9867C25.5058 26.4229 25.8099 25.898 26.1933 25.4333C26.3869 25.1913 26.5037 24.897 26.5286 24.5881C26.5536 24.2792 26.4855 23.9699 26.3333 23.7C26.3225 23.6759 26.3168 23.6498 26.3168 23.6233C26.3168 23.5969 26.3225 23.5708 26.3333 23.5467C26.3387 23.5209 26.35 23.4967 26.3661 23.4759C26.3823 23.4551 26.403 23.4383 26.4266 23.4267L27.8333 22.6133C27.866 22.6042 27.9006 22.6042 27.9333 22.6133C27.9667 22.6138 27.9994 22.6225 28.0285 22.6388C28.0576 22.6551 28.0822 22.6784 28.1 22.7067C28.2574 22.9759 28.4925 23.1913 28.7744 23.3245C29.0564 23.4578 29.372 23.5027 29.68 23.4533C30.2669 23.3534 30.8664 23.3534 31.4533 23.4533C31.7633 23.4952 32.0787 23.4425 32.3582 23.3021C32.6378 23.1618 32.8684 22.9403 33.02 22.6667C33.033 22.6447 33.0503 22.6255 33.0708 22.6102C33.0913 22.5949 33.1146 22.5839 33.1394 22.5777C33.1642 22.5715 33.19 22.5703 33.2153 22.5741C33.2405 22.5779 33.2648 22.5867 33.2866 22.6L34.6933 23.4133C34.717 23.4249 34.7377 23.4418 34.7538 23.4626C34.77 23.4833 34.7812 23.5076 34.7866 23.5333C34.7975 23.5574 34.8031 23.5836 34.8031 23.61C34.8031 23.6364 34.7975 23.6626 34.7866 23.6867C34.6332 23.955 34.5645 24.2635 34.5894 24.5717C34.6144 24.8798 34.732 25.1732 34.9266 25.4133C35.3054 25.8825 35.607 26.4092 35.82 26.9733C35.9251 27.268 36.117 27.5239 36.3706 27.7072C36.6241 27.8904 36.9272 27.9926 37.24 28C37.2665 27.9991 37.2929 28.0036 37.3176 28.0133C37.3423 28.023 37.3647 28.0377 37.3835 28.0565C37.4022 28.0753 37.4169 28.0977 37.4267 28.1224C37.4364 28.1471 37.4409 28.1735 37.44 28.2V29.8Z" fill="#F1FAEE"></path>
    <path d="M30.5533 25.96C29.9547 25.96 29.3695 26.1375 28.8718 26.4701C28.3741 26.8027 27.9861 27.2754 27.7571 27.8284C27.528 28.3815 27.468 28.99 27.5848 29.5771C27.7016 30.1643 27.9899 30.7036 28.4132 31.1268C28.8365 31.5501 29.3758 31.8384 29.9629 31.9552C30.55 32.072 31.1585 32.012 31.7116 31.7829C32.2646 31.5539 32.7374 31.1659 33.0699 30.6682C33.4025 30.1705 33.58 29.5853 33.58 28.9867C33.58 28.1839 33.2611 27.4141 32.6935 26.8465C32.1259 26.2789 31.3561 25.96 30.5533 25.96ZM30.5533 30.68C30.2184 30.68 29.891 30.5807 29.6126 30.3946C29.3341 30.2086 29.1171 29.9441 28.9889 29.6347C28.8607 29.3253 28.8272 28.9848 28.8925 28.6563C28.9579 28.3278 29.1192 28.0261 29.356 27.7893C29.5928 27.5525 29.8945 27.3912 30.223 27.3259C30.5515 27.2605 30.8919 27.2941 31.2014 27.4222C31.5108 27.5504 31.7752 27.7674 31.9613 28.0459C32.1474 28.3244 32.2467 28.6518 32.2467 28.9867C32.2432 29.4335 32.0632 29.8607 31.746 30.1754C31.4288 30.4901 31.0001 30.6667 30.5533 30.6667V30.68Z" fill="#F1FAEE"></path>
  </symbol>
  <symbol fill="none" xmlns="http://www.w3.org/2000/svg" viewBox="0 0 30 30" id="twitter">
    <path d="M29.5538 6.17125C28.51 6.63375 27.3888 6.94625 26.21 7.0875C27.4263 6.35974 28.3362 5.21433 28.77 3.865C27.6273 4.54373 26.3767 5.02149 25.0725 5.2775C24.1955 4.34108 23.0338 3.7204 21.7679 3.51184C20.502 3.30327 19.2026 3.51849 18.0716 4.12406C16.9405 4.72964 16.041 5.6917 15.5127 6.86088C14.9844 8.03005 14.8569 9.34093 15.15 10.59C12.8346 10.4737 10.5696 9.87193 8.5018 8.82363C6.43404 7.77532 4.60982 6.30395 3.14751 4.505C2.64751 5.3675 2.36001 6.3675 2.36001 7.4325C2.35946 8.39124 2.59556 9.3353 3.04736 10.1809C3.49917 11.0265 4.15272 11.7475 4.95002 12.28C4.02536 12.2506 3.12111 12.0007 2.31251 11.5512V11.6262C2.31242 12.9709 2.77756 14.2742 3.62899 15.315C4.48043 16.3558 5.66573 17.0699 6.98377 17.3362C6.12599 17.5684 5.22669 17.6026 4.35377 17.4362C4.72564 18.5933 5.45001 19.605 6.42547 20.3299C7.40094 21.0548 8.57866 21.4565 9.79377 21.4787C7.73106 23.098 5.18362 23.9764 2.56126 23.9725C2.09674 23.9726 1.63261 23.9455 1.17126 23.8912C3.83311 25.6027 6.93169 26.511 10.0963 26.5075C20.8088 26.5075 26.665 17.635 26.665 9.94C26.665 9.69 26.6588 9.4375 26.6475 9.1875C27.7866 8.36371 28.7699 7.34362 29.5513 6.175L29.5538 6.17125Z" fill="#457B9D"></path>
  </symbol>
  <symbol fill="none" xmlns="http://www.w3.org/2000/svg" viewBox="0 0 40 40" id="work">
    <path d="M35 10H26.25V7.5C26.25 6.83696 25.9866 6.20107 25.5178 5.73223C25.0489 5.26339 24.413 5 23.75 5H16.25C15.587 5 14.9511 5.26339 14.4822 5.73223C14.0134 6.20107 13.75 6.83696 13.75 7.5V10H5C4.33696 10 3.70107 10.2634 3.23223 10.7322C2.76339 11.2011 2.5 11.837 2.5 12.5V32.5C2.5 33.163 2.76339 33.7989 3.23223 34.2678C3.70107 34.7366 4.33696 35 5 35H35C35.663 35 36.2989 34.7366 36.7678 34.2678C37.2366 33.7989 37.5 33.163 37.5 32.5V12.5C37.5 11.837 37.2366 11.2011 36.7678 10.7322C36.2989 10.2634 35.663 10 35 10ZM16.25 7.5H23.75V10H16.25V7.5ZM35 12.5V23.75H5V12.5H35ZM5 32.5V26.25H35V32.5H5Z" fill="#F1FAEE"></path>
    <path d="M18.75 22.5H21.25C21.5815 22.5 21.8995 22.3683 22.1339 22.1339C22.3683 21.8995 22.5 21.5815 22.5 21.25C22.5 20.9185 22.3683 20.6005 22.1339 20.3661C21.8995 20.1317 21.5815 20 21.25 20H18.75C18.4185 20 18.1005 20.1317 17.8661 20.3661C17.6317 20.6005 17.5 20.9185 17.5 21.25C17.5 21.5815 17.6317 21.8995 17.8661 22.1339C18.1005 22.3683 18.4185 22.5 18.75 22.5Z" fill="#F1FAEE"></path>
  </symbol>
</svg>